<svg viewBox="0 0 312.63 78.49" xmlns="http://www.w3.org/2000/svg"><text fill="#fff" font-family="Poppins-SemiBold, Poppins" font-size="51.76" font-weight="600" transform="translate(95.44 47.79)">MyMóvil</text><path d="m16.76 28.38.4-.08c5.28 5.7 10.59 11.43 15.84 17.19a10.49 10.49 0 0 0 6 3.57c3.42.62 7.18-1 8.73-3.71a6.52 6.52 0 0 0 -1.11-8c-10.62-11.56-21.23-23.13-31.96-34.58-2.66-2.86-6.2-3.44-9.9-2.04-3.23 1.27-4.76 3.68-4.76 7.13q0 16.74 0 33.47a6.61 6.61 0 0 0 2 4.76c2.36 2.42 6.75 3.2 10.17 1.79 3.06-1.27 4.62-3.84 4.63-7.62zm57.15 13.62a6.54 6.54 0 0 0 -2-4.81c-10.49-11.33-20.91-22.69-31.44-33.97a10.87 10.87 0 0 0 -4.08-2.63 8.48 8.48 0 0 0 -10 3.09c-1.85 2.85-1.24 5.82 1.85 9.18q15.38 16.62 30.76 33.25a9.38 9.38 0 0 0 5.77 3c4.86.69 9.12-2.59 9.14-7.11zm2.35-33.85c.09-4.66-3.08-8-7.06-8a7.13 7.13 0 0 0 -7.15 7.2 15.78 15.78 0 0 0 4 10.11c2 2.26 4.31 2.21 6.28-.08a16.26 16.26 0 0 0 3.93-9.23z"/><g fill="#fff"><path d="m16.76 28.38v11.88c0 3.78-1.57 6.35-4.63 7.62-3.42 1.41-7.81.63-10.13-1.79a6.61 6.61 0 0 1 -2-4.76q0-16.74 0-33.47c0-3.45 1.53-5.86 4.76-7.13 3.7-1.4 7.22-.82 9.9 2 10.73 11.45 21.34 23 32 34.58a6.52 6.52 0 0 1 1.11 8c-1.55 2.74-5.31 4.33-8.73 3.71a10.49 10.49 0 0 1 -6-3.57c-5.29-5.72-10.6-11.45-15.88-17.15z"/><path d="m73.91 42c0 4.52-4.28 7.8-9.19 7.11a9.38 9.38 0 0 1 -5.77-3q-15.33-16.63-30.68-33.25c-3.09-3.36-3.7-6.33-1.85-9.18a8.48 8.48 0 0 1 10-3.09 10.87 10.87 0 0 1 4.08 2.63c10.52 11.28 21 22.64 31.41 34a6.54 6.54 0 0 1 2 4.78z"/><path d="m76.26 8.15a16.26 16.26 0 0 1 -3.9 9.22c-2 2.29-4.27 2.34-6.28.08a15.78 15.78 0 0 1 -4-10.11 7.13 7.13 0 0 1 7.12-7.2c3.98.02 7.15 3.35 7.06 8.01zm-1.57-2a3.4 3.4 0 0 0 -3.42-3.46 3.52 3.52 0 0 0 -3.52 3.42 3.47 3.47 0 0 0 3.56 3.52 3.36 3.36 0 0 0 3.38-3.44z"/></g><path d="m74.69 6.19a3.36 3.36 0 0 1 -3.38 3.48 3.47 3.47 0 0 1 -3.56-3.52 3.52 3.52 0 0 1 3.52-3.42 3.4 3.4 0 0 1 3.42 3.46z" fill="#a2c42a"/></svg>