<svg viewBox="0 0 875.59 708.66" xmlns="http://www.w3.org/2000/svg"><g fill="#fff"><g opacity=".5"><path d="m115.38 253.27v-21.1a.85.85 0 0 0 -1.7 0v21.1a.85.85 0 1 0 1.7 0z"/><path d="m116.1 352.2v-21.82a.85.85 0 1 0 -1.7 0v21.82a.85.85 0 1 0 1.7 0z"/><path d="m117.55 465.74v-34.14a.85.85 0 0 0 -1.7 0v34.14a.85.85 0 0 0 1.7 0z"/><path d="m165.36 129 .12-.06a.53.53 0 0 0 .19-.16l.12-.12a.91.91 0 0 0 .12-.35v-51a.81.81 0 0 0 -.24-.6l-13.51-13.9a.88.88 0 0 0 -.41-.23l-149.49-17.46a.86.86 0 0 0 -.39 1.67l149.25 17.4 13.1 13.4v49l-15.29-10a1 1 0 0 0 -.32-.12l-72.93-12.47c-.22 0-73.92-5.21-74.1-5.08a.84.84 0 0 0 -.35.55.82.82 0 0 0 .15.64c.13.19 73.79 5.54 74 5.58l72.76 12.34 15 9.87-32 11.66-17-8.57a1 1 0 0 0 -.3-.08l-111.71-8.45a.9.9 0 0 0 -.91.78.85.85 0 0 0 .78.92l87.13 6.31v13a.85.85 0 1 0 1.7 0v-12.85l22.74 2 16.72 8.42v16.64l-15.29-2.68a.85.85 0 0 0 .37-.69v-15.24a.85.85 0 1 0 -1.7 0v15.27a.85.85 0 0 0 .17.49l-111.64-12a.87.87 0 0 0 -1 .7.85.85 0 0 0 .69 1l129.07 15 20.23 4 13 8.72v51.12l-15.28-9.37a.9.9 0 0 0 -.34-.11l-146.4-13.34a.85.85 0 0 0 -.77 1.38.85.85 0 0 0 .57.32l146.21 13.29 14.57 8.94-31.58 6.09-20.88-5.79-108.13-8.34a.87.87 0 0 0 -.94.76.9.9 0 0 0 .18.63.84.84 0 0 0 .57.31l86.51 5.91a.86.86 0 0 0 -.8.85v21.82a.86.86 0 1 0 1.71 0v-21.82a.86.86 0 0 0 -.66-.82l21.27 2.37 20.32 5.65v23.18l-128.19-7.05a.8.8 0 0 0 -.61.19.9.9 0 0 0 -.3.62.88.88 0 0 0 .22.62.83.83 0 0 0 .59.28l128.97 7.06 20.24 3.16 12.95 4.6v51.46l-22.92-4.19-139.15-8.52a.87.87 0 0 0 -.62.21.85.85 0 0 0 -.28.6.9.9 0 0 0 .21.62.83.83 0 0 0 .59.28l139.07 8.54 17.55 3.24-27.46 2.36-26.72-2.91-102.31-5.72a.75.75 0 0 0 -.61.17.88.88 0 0 0 -.1 1.26.86.86 0 0 0 .59.27l87.1 5v25.32a.85.85 0 1 0 1.7 0v-25.25l13.5.63 26 2.83v32.47l-128.33-6.15a.87.87 0 0 0 -.82.84.85.85 0 0 0 .83.87l129 6.17 20.28 2.06 12.86 2.93v11.59l.65-.68c.31-.32.62-.65.94-1l.11-.11v-10.48a.84.84 0 0 0 -.66-.83l-13.62-3.11-19.65-2v-32.53l33.13-2.84h.06l.17-.05.13-.07.13-.1.09-.1.09-.16s0-.08 0-.09a.52.52 0 0 0 0-.16v-53.25a.85.85 0 0 0 -.56-.81l-13.68-4.83-19.48-3.09v-23.3l33.24-6.41a.69.69 0 0 0 .18-.06h.08a.75.75 0 0 0 .29-.27l.06-.08a1.21 1.21 0 0 0 .08-.29v-53.24a.85.85 0 0 0 -.37-.71l-13.56-9.09a.71.71 0 0 0 -.31-.13l-19.69-3.87v-16.88z"/><path d="m1.65 406.19a.83.83 0 0 0 -.58.25.86.86 0 0 0 -.27.59.87.87 0 0 0 .83.88l135.24 4.79 9.12.71.33-1.7-9.32-.71z"/><path d="m223.58 189.44 56.76 61.83-6.68 4.18a.86.86 0 0 0 -.4.73v8.73a.85.85 0 0 0 1.7 0v-8.25l7.15-4.48a.86.86 0 0 0 .17-1.31l-57.76-62.87a.84.84 0 0 0 -.75-.27l-48.38 7.27a.86.86 0 0 0 -.72 1 .86.86 0 0 0 1 .72z"/><path d="m225.21 217.54a.81.81 0 0 0 -.7-.24l-48.38 6.46a.86.86 0 0 0 -.41 1.53.85.85 0 0 0 .63.17l48-6.41 56 56.13-6 4.31a.84.84 0 0 0 -.36.69v8.73a.85.85 0 1 0 1.7 0v-8.29l6.47-4.63a.86.86 0 0 0 .11-1.31z"/><path d="m228.17 335.76-49.1 3.24a.86.86 0 0 0 -.58.29.83.83 0 0 0 -.21.62.86.86 0 0 0 .29.6.76.76 0 0 0 .61.2l48.82-3.22 17.12 10.9 2.77-.26-19.22-12.24a.74.74 0 0 0 -.5-.13z"/><path d="m280.47 344.85-51.74-38.54a.79.79 0 0 0 -.57-.17l-49.1 4.05a.8.8 0 0 0 -.58.29.86.86 0 0 0 -.2.63.84.84 0 0 0 .91.78l48.79-4 49.09 36.56 3 2.24-4.9 2.58a.85.85 0 0 0 -.46.76v10.17a.85.85 0 1 0 1.7 0v-9.67l5.65-3a.84.84 0 0 0 .46-.69.86.86 0 0 0 -.34-.76z"/><path d="m274.7 325.28v10.91a.85.85 0 1 0 1.7 0v-10.32l5.56-2.1a.86.86 0 0 0 .25-1.46l-53.44-45.59a1 1 0 0 0 -.63-.19l-49.14 4.85a.85.85 0 0 0 -.76.93.84.84 0 0 0 .93.77l48.83-4.81 52 44.41-4.76 1.8a.86.86 0 0 0 -.54.8z"/><path d="m228.81 247.14a.84.84 0 0 0 -.68-.23l-49.13 5.66a.86.86 0 0 0 -.75 1 .87.87 0 0 0 .94.75l48.71-5.61 52.39 50.29-5.91 3.75a.83.83 0 0 0 -.4.72v10.18a.85.85 0 1 0 1.7 0v-9.71l6.43-4.08a.86.86 0 0 0 .4-.64.87.87 0 0 0 -.26-.7z"/><path d="m312.32 305a.87.87 0 0 0 -.61-.16l-26.71 3.59a.86.86 0 0 0 -.4 1.54.88.88 0 0 0 .63.16l26.38-3.59 42.7 31.54v12.28l.16.11.94.68.6.43v-13.93a.86.86 0 0 0 -.35-.69z"/><path d="m309.66 310.61a.85.85 0 0 0 -.85.85v30.61l1.7-.14v-30.47a.85.85 0 0 0 -.85-.85z"/><path d="m320.49 321.52a.85.85 0 0 0 -.85.85v19l1.7-.06v-18.94a.85.85 0 0 0 -.85-.85z"/><path d="m331.32 332.43a.85.85 0 0 0 -.85.85v8.15h.35l.94.07h.41v-8.29a.85.85 0 0 0 -.85-.78z"/><path d="m342.15 338.25a.85.85 0 0 0 -.85.85v4.2l.26.08.95.31.49.17v-4.76a.85.85 0 0 0 -.85-.85z"/><path d="m350.09 343.34a.85.85 0 0 0 -.85.86v2.72l1.7 1.12v-3.84a.85.85 0 0 0 -.85-.86z"/><path d="m295.22 317.15a.86.86 0 0 0 -.85.86v25.41l1.7-.17v-25.25a.86.86 0 0 0 -.85-.85z"/><path d="m442.75 428.32v15.44a.85.85 0 1 0 1.7 0v-5.6h16v11.51a.86.86 0 0 0 .85.86h4.93v11.47a.85.85 0 0 0 1.7 0v-12.33a.86.86 0 0 0 -.85-.86h-4.92v-11.51a.86.86 0 0 0 -.86-.85h-6.37v-23h22.13v43.51a.85.85 0 1 0 1.7 0v-44.39a.85.85 0 0 0 -.85-.85h-23.84a.86.86 0 0 0 -.85.85v23.88h-8.77v-30.79a.86.86 0 0 0 -.25-.6l-12.38-12.48v-29.47a.86.86 0 0 0 -.23-.59l-10.59-11.39v-29.48a.85.85 0 0 0 -.53-.79.83.83 0 0 0 -.93.18l-5.78 5.82a.89.89 0 0 0 -.24.6v46.93l-9.14 9.21a.84.84 0 0 0 -.25.6v8l.43.4.64.59.63.58v-9.25l9.14-9.21a.86.86 0 0 0 .25-.6v-46.89l4.08-4.11v27.76a.9.9 0 0 0 .22.59l10.61 11.39v29.48a.86.86 0 0 0 .25.61l12.37 12.46z"/><path d="m420.86 361.52a.86.86 0 0 0 -.85.86v44.8l1.7 1.63v-46.43a.86.86 0 0 0 -.85-.86z"/><path d="m544.93 374.75v53.1a.85.85 0 0 0 1.7 0v-52.72l24.29-21.75v67.92a.85.85 0 1 0 1.7 0v-69h26.46v95.89a.85.85 0 0 0 1.7 0v-96.72a.86.86 0 0 0 -.85-.86h-28.16a.77.77 0 0 0 -.32.07l-26.24 23.43a.85.85 0 0 0 -.28.64z"/><path d="m874.61 5.08-255.77 35.51v-39.73a.88.88 0 0 0 -.49-.78.86.86 0 0 0 -.91.12l-4.33 3.64a.86.86 0 0 0 -.31.65v40.38l-13.47 13.58a.84.84 0 0 0 -.25.6v285.15a.85.85 0 0 0 1.7 0v-284.8l13.48-13.57a.89.89 0 0 0 .24-.6v-40.33l2.64-2.21v38.9a.86.86 0 0 0 1 .85l256.73-35.67a.85.85 0 0 0 -.26-1.69z"/><path d="m628.57 65.64a.85.85 0 0 0 -.64-.12.81.81 0 0 0 -.54.36c-1.63 2.47-.28 350.64-.15 372.88a.86.86 0 1 0 1.71 0c-.48-76.86-1.14-368-.09-372a.86.86 0 0 0 -.29-1.12z"/><path d="m539.15 404.57v55.28a.85.85 0 1 0 1.7 0v-55.28a.85.85 0 1 0 -1.7 0z"/><path d="m570.33 436.45a.85.85 0 0 0 -.85.85v23.28a.85.85 0 1 0 1.7 0v-23.28a.85.85 0 0 0 -.85-.85z"/><path d="m507.38 424.94v50.19a.85.85 0 1 0 1.7 0v-50.19a.85.85 0 1 0 -1.7 0z"/><path d="m139.25 474.39.06-1.06-1.81-.07a1.4 1.4 0 0 0 -1.26.39 1.53 1.53 0 0 0 -.46.92h-1.56l1.55.39v23.6-21.64a1.51 1.51 0 1 0 -3 0v21.77l-10.17.44v-22.75a1.51 1.51 0 1 0 -3 0v22.88l-11.43.5v-24a1.51 1.51 0 1 0 -3 0v24.1l-12.87.56v-25.28a1.51 1.51 0 1 0 -3 0v25.44l-2 .08v-28.3a1.52 1.52 0 0 0 -1.44-1.52l-84.49-1v.06a1.4 1.4 0 0 0 -.65.28 1.59 1.59 0 0 0 -.72 1.12v.34l1.13.16v.11l84 1v29.94l51.06-2.21c-.25 10.76-.33 22.61-.25 35.23l-2.39.36-.34-8.83-9.84-1-29 3.57-.37.03.08 2 18.41.76.28 6.66-89.77 6.58-.37.05.31 2.07 100.39-8.27.37-.06 9.88-1.51 4.38-.67v-.91c-.18-24 .25-44.79 1.25-61.89l1.12-.28h-1.1a1.09 1.09 0 0 0 .02-.14zm-32.09 56.06 16.18-2 7.82.82.28 7.27-16.67 2.55-.34-8.34z"/><path d="m871.36 665.54-332.87-174.54a1.59 1.59 0 0 0 -.6-.17h-.3v-13h1.54v10a.85.85 0 0 0 .57.81l5.78 2.05a.84.84 0 0 0 .77-.1.87.87 0 0 0 .36-.7v-12.01h3.09v13.61a.85.85 0 0 0 .57.81l6 2.14a.85.85 0 0 0 1.13-.81v-15.63h4.35v17.78a.86.86 0 0 0 .57.81l7.31 2.59a.82.82 0 0 0 .77-.11.84.84 0 0 0 .36-.7v-20.24l6 .06v22.94a.85.85 0 0 0 .57.81l9.2 3.27a.84.84 0 0 0 .77-.11.87.87 0 0 0 .36-.7v-26.1l8.32.09v29.61a.86.86 0 0 0 .57.81l11.93 4.19a.92.92 0 0 0 .28 0 .89.89 0 0 0 .49-.16.87.87 0 0 0 .36-.7v-33.61l263.3 9.93c.46 0 0-2.32 0-2.78a.85.85 0 0 0 -.24-.61.81.81 0 0 0 -.6-.26l-263.3-8h-.15a.88.88 0 0 0 -.46.22.86.86 0 0 0 -.25.61v33.36l-10.21-3.62v-29.84a.86.86 0 0 0 -.84-.86l-10-.1a.85.85 0 0 0 -.85.86v25.75l-7.5-2.66v-23.19a.86.86 0 0 0 -.84-.86l-7.65-.07a.79.79 0 0 0 -.64.24.88.88 0 0 0 -.25.61v19.93l-5.61-2v-18a.86.86 0 0 0 -.84-.86l-6-.06a.84.84 0 0 0 -.87.85v15.33l-4.34-1.53v-13.86a.86.86 0 0 0 -.84-.86h-4.72a.85.85 0 0 0 -.68.24.88.88 0 0 0 -.25.61v11.6l-4.08-1.44v-10.21a.85.85 0 0 0 -.84-.85h-3.25a.84.84 0 0 0 -.6.25.86.86 0 0 0 -.25.61v13.79h-.66v.2l-49.14 7.19-4.57-7.33h-2.67a1.51 1.51 0 0 0 -1.29.72l-107.52 215.89 15 1.19 94-215.75h1.23l4.68 7.49 51.21-7.49h1.38l333.52 181.63m0 0 .23-9"/></g><path d="m85.25 419.6h8a14.9 14.9 0 0 1 1.39-1h-20.78a.48.48 0 0 0 -.48.48.49.49 0 0 0 .48.48h10.43v16.2c.28-1.07.61-2.13 1-3.19z"/><path d="m126.48 462a.49.49 0 0 0 .48.48.48.48 0 0 0 .48-.48v-28.84l-1-.14z"/><path d="m126.93 418.64h-8.37l1 .25 3.07.71h3.81v11l1 .28v-11.4l12.56-1.82.15-1z"/><path d="m148 559.57 1.4 1.55 2.59-1.79-.72-.84c-.48-.56-1-1.1-1.45-1.64a39.41 39.41 0 0 1 -3-3.53c-1-1.4-2.06-2.76-3.14-4.13-3.78-4.79-7.36-9.32-7.27-15.31l.12-7.64c.34-22.39.7-45.54 2.27-68.21.73-10.49 2.69-21.11 4.6-31.37.93-5 1.89-10.19 2.7-15.3a34.83 34.83 0 0 1 1.06-4.56l-1.64 20.72 2 .35a90.89 90.89 0 0 0 2.91-16.33c.24-2.7 1.07-3.5 4-3.87 45.34-5.64 91.4-11.55 136-17.27l1.94-.25c5-.63 9.88-1.37 14.86-2.11l5.93-.88 5.9 25 2.57-.58-5.06-29.87-168.28 22a30.26 30.26 0 0 1 11.41-13.71 89.13 89.13 0 0 1 17.37-9.22c18.31-7.05 37.42-9.79 57-12.19q31.38-3.85 62.75-7.77l27.2-3.38-.14-2c-9.25.15-18.69.75-28.05 1.78l-14.65 1.62c-22.15 2.43-45 4.94-67.5 7.88-20.1 2.63-34.88 6.75-47.92 13.34-14.7 7.44-22.78 17.33-24.68 30.24l-.72 4.87c-.08.49-.15 1-.22 1.5l.78-.12c-.06.33-.11.66-.17 1l-.76.12c-2.64 17.85-5.32 36.22-7 54.42-3.94 42.22-3.92 79.43.08 113.78l2-.15-1.5-47.49c2.6 8.27 8.61 14.88 14.43 21.34z"/><path d="m141 416.55-.78.12-.15 1 .76-.12c.01-.34.06-.67.17-1z"/><path d="m310.73 539.88h1l.07-3.18-124.9-3 1.79-.31c3.18-.55 6.47-1.12 9.7-1.37a36.43 36.43 0 0 1 6 .19c1.45.11 2.91.24 4.36.25 7.27.05 14.54 0 21.81 0h9.71v-2.62l-58.07-1.93-.11 2.22 1.74.69a34.51 34.51 0 0 1 -10.23 3.09 66 66 0 0 1 -9.33.26c-1.31 0-2.62 0-3.91 0h-13.67l.09 2.95 20.47.9-13.75 6 1.38 3.12.89-.36c1.33-.53 2.68-1 4-1.56 3-1.16 6.1-2.35 9.06-3.75a33.59 33.59 0 0 1 16.13-3c22.06.77 41.92 1.24 60.73 1.45 15.11.16 30.47.12 45.32.09q9.88-.12 19.72-.13z"/><path d="m308.63 377.27c-31.66 3.86-67.54 8.23-102.8 12.88-11.12 1.47-22.37 3.3-33.25 5.08-5 .82-10.06 1.65-15.09 2.43l-5.82.91 5.8 1.06a27.21 27.21 0 0 0 4.86.42 46.82 46.82 0 0 0 5.93-.44l21.18-2.68q47.19-6 94.36-12c8.41-1.09 16.77-2.39 25.62-3.75 4.18-.65 8.47-1.31 12.9-2l-.14-2c-1.77 0-3.4 0-4.94-.09a56.45 56.45 0 0 0 -8.61.18z"/><path d="m143.36 598.78a17.29 17.29 0 0 0 7.32 2.33l13.62 1.61c12.64 1.51 25.71 3.06 38.59 4.36 30.94 3.11 71.66 7.16 112.26 10.83 3.07.28 6.16.37 9.32.37 2.61 0 5.26-.06 8-.12 2.89-.07 5.88-.14 9-.14l.09-2-201.8-19.51z"/><path d="m420.4 460.85a15.25 15.25 0 0 0 -5.22-4l-14.89-7.85c-15.38-8.1-31.29-16.49-47.05-24.53-4-2.05-5.4-4.12-5.24-7.9a56.05 56.05 0 0 0 -.45-7.9c-.13-1.13-.25-2.26-.33-3.39l-.08-1-3.05.14 4.17 131.88 3.69-.1-1.55-55.53c.16 1.05.33 2 .53 2.93 1.31 6 4.26 8.38 10.44 8.38h.68c7.08-.19 10.7-3.23 11.07-9.31a135.74 135.74 0 0 0 -.22-21.2c-.33-3.5-2.09-6.48-3.78-9.37-1.87-3.19-3.64-6.2-3.65-9.83a1.16 1.16 0 0 0 -1-1.07l-2.23-.76.43 1.77a44.12 44.12 0 0 1 .74 4.58c.53 4.2 1.07 8.53 5 11.86 0 2.35.05 4.7.09 7.05.09 5.94.19 12.08-.13 18.09-.1 1.77-.93 3.81-6.61 3.88h-.31c-4.15 0-5.84-1.08-6.23-3.91-.92-6.74-1.72-13.5-2.47-19.74l-1.35-11.02-1.4 3.8a5.84 5.84 0 0 0 -.22.82l-.83-29.8 74.19 36.47z"/><path d="m442.68 520.41a1 1 0 0 0 -.89-.19 1 1 0 0 0 -.67.61c-.19.54-.42 1-.63 1.54a11.91 11.91 0 0 0 -1.12 3.45 108.26 108.26 0 0 0 -.8 12.72 5.74 5.74 0 0 1 -2.68 5.42c-4.18 3-8.32 6.17-12.31 9.25l-4.74 3.65-11.52 8.78c-.09-1.47-.16-2.9-.23-4.3a117.14 117.14 0 0 0 -1.09-12.88 29.53 29.53 0 0 0 -4.35-11.6 7.07 7.07 0 0 0 -6.53-3.45 7.15 7.15 0 0 0 -5.68 4.81 38.28 38.28 0 0 0 -2.55 11.35c-.13-2-.26-3.85-.39-5.61-.23-3.49-.59-7-.94-10.43-.15-1.55-.31-3.11-.46-4.67l-2 .08c-.34 16.89.33 33.2 1 46.94.14 2.8-.52 4.26-2.64 5.81-2.54 1.85-6.49 4.65-10.84 7.74-8 5.65-17 12.06-21.5 15.55l-.85.7 2.15 2.23.69-.5c3.31-2.35 8.56-5.91 14.12-9.68 4.41-3 9.14-6.2 13.28-9.06l-2.81 2.33c-1.27 1-2.55 2-3.81 3.06a1 1 0 0 0 1.1 1.65 86.18 86.18 0 0 0 15.44-10.77 9 9 0 0 0 2.92-6.13c0-3.49-.16-7-.32-10.45-.19-4.09-.39-8.33-.28-12.47a60.64 60.64 0 0 1 2.32-15.34c.47-1.62 1.41-2.64 2.52-2.74s2.36.8 3.18 2.42a34.68 34.68 0 0 1 3.14 11.24c.06.43.08.88.13 1.32a63.82 63.82 0 0 0 -3.04-9.59l-1.88.66c3.84 13.21 4.18 27.31 1 41.91a19.27 19.27 0 0 1 -2.26 5.09c-.45.79-.89 1.58-1.26 2.36l-.66 1.36 1.51.07h.24c3.58 0 4.51-3.63 5.13-6l.14-.54a83.06 83.06 0 0 0 2.62-15.76 1 1 0 0 0 .35.31 1 1 0 0 0 1-.06l1.31-.84c.74-.47 1.34-.85 1.9-1.29q4.67-3.65 9.31-7.31c7-5.49 14.17-11.16 21.34-16.63a8.23 8.23 0 0 0 3.58-7.55c-.15-3.66-.12-7.39-.09-11v-3.69h.71l.77 5.12a1.58 1.58 0 0 0 -.31 0 1 1 0 0 0 -.9 1v13a1 1 0 0 0 2 .24c3.56-14.52 3.71-18.76-1.87-23.24z"/><path d="m315.33 429.33-.9-3.36-161.43 15.32.36 3.61 1-.07c53.55-3.57 107.34-8.73 159.88-15.35z"/><path d="m284.27 568.8-119.61-6.24-.23 4.35 119.61 6.21z"/><path d="m127.44 430.93-1-.28c-5.61-1.6-11.21-2.73-16.51-3.72-4.93-.94-8.47 1.15-10 5.83-1 3.24-2 6.49-3 9.74q-1 3.44-2.07 6.86c-.17.56-.34 1.13-.5 1.69a27.22 27.22 0 0 1 -2.08 5.61 7 7 0 0 1 -2.84 2.62c-1.31-.39-2.61-2.64-3.17-3.6a4.87 4.87 0 0 1 -.2-3c.35-2 .67-3.93 1-5.89a124.08 124.08 0 0 1 3.34-16c2.52-8.28 7.06-11.28 16.27-10.63a107.2 107.2 0 0 1 11.86 1.72c1.8.33 3.59.66 5.39.95l.77.12 1.12-2.65-1.17-.26-2-.47-3.07-.71-1-.25a106.25 106.25 0 0 0 -10.6-2.11c-5.37-.7-9.83 0-13.36 2.11a14.9 14.9 0 0 0 -1.39 1 16.48 16.48 0 0 0 -4.39 4.95 43.56 43.56 0 0 0 -3.57 8.06c-.35 1.06-.68 2.12-1 3.19a99.78 99.78 0 0 0 -2.56 18.54 11.16 11.16 0 0 0 1.67 5.88 6.74 6.74 0 0 0 5.47 3.69h.44a6.92 6.92 0 0 0 5.56-3 18.94 18.94 0 0 0 2.75-5.78c1.33-4.42 2.56-8.86 3.79-13.31l1.57-5.64c1.62-5.74 2.7-6.4 8.85-5.4 3.87.63 7.74 1.19 11.62 1.76l3 .44 1 .14 1.21.18.45-1.94c-.55-.14-1.09-.28-1.65-.44z"/><path d="m349.46 551.22c6.87 0 10.85-3 12.48-9.44a58.81 58.81 0 0 1 2.86-7.94c.88-2.11 1.79-4.29 2.48-6.51s1.89-3.29 4.47-3.71c8.43-1.35 16-2.67 23.06-4q16.92-3.27 33.81-6.65l14.71-2.97-.36-2.69h-.87c-.27 0-.53 0-.8 0a9.74 9.74 0 0 0 -2 .06l-4.67.79c-21.91 3.69-44.56 7.51-66.82 11.44-1.65.29-3.42 2.23-4.05 3.86a120 120 0 0 0 -5 15.25c-1.53 6.49-4.29 9.39-9.51 10a1.42 1.42 0 0 0 -1.07 1l-.9 1.47h1.73z"/><path d="m270.32 578.22-98.76-7.1-.31 4.29 98.74 7.18z"/><path d="m260.68 585.92-79.52-5.87-.29 3.75 79.51 5.97z"/><path d="m336.42 574.32c-7.21.72-14.41 1.5-21.61 2.29l-9.15 1 .18 2c4.51-.32 9.15-.37 13.63-.41 4.2 0 8.55-.08 12.83-.35 7.11-.44 8.09-.23 10 6.67a3.9 3.9 0 0 1 0 3 2.82 2.82 0 0 1 -1.95 1.14 74 74 0 0 1 -12 2c-4.41.22-8.93.17-13.3.12h-3.35-.18c-.6-.12-1.19-.23-1.79-.32l-.76.07-.35.56.73.71-.84-.54-1 1.53h4a29.24 29.24 0 0 0 3.64.5c2.11.12 4.21.34 6.32.57a90 90 0 0 0 9.33.66 30.89 30.89 0 0 0 9.8-1.44c5.76-1.9 7.05-3.9 6-9.29-1.44-7.19-5.16-10.94-10.18-10.47z"/><path d="m256.35 599.66.76-3.77-72.08-6.17-.35 3.77z"/><path d="m381.23 510.98 3.86-.22-3.78-64.46-3.81.22z"/><path d="m154.73 582.65h1a47 47 0 0 0 5.2-.39c.88-.1 1.77-.2 2.65-.27l1.53-.13-.74-1.35c-.43-.79-.83-1.6-1.24-2.41a33.74 33.74 0 0 0 -3.13-5.41c-3.26-4.29-7.54-8.43-14.63-6.66l-7.89 2h8.15c6.15 0 8.89 3.83 12 8.26.58.82 1.17 1.65 1.8 2.47h-20.69l-.14 2.48 1 .08 4.45.45c3.46.35 7.09.72 10.68.88z"/><path d="m410.2 508.45 3.89-.07-3.24-45.76-3.87.27z"/><path d="m427.04 469.53-3.35.24 2.21 36.28 3.35-.2z"/><path d="m439.3 475.75-3.31.24 1.91 26.97 3.32-.23z"/><path d="m445.24 479.98 1.89 22.84 3.18-.25-1.62-23.05z"/><path d="m454 471c-3.67-18.2-16.86-32.3-30.78-43.66a1.83 1.83 0 0 0 -.28-.14q-6.12-5.77-12.21-11.59c-9.48-9-19.29-18.37-29.06-27.42-7.22-6.68-16.83-15.43-27.14-23.76-3.21-2.6-6.27-3.62-9-3s-5.25 2.79-7.22 6.57a74 74 0 0 0 -5.88 15.51c-5.89 22.47-8.14 45.07-9.7 72.09-1.22 21-2.1 43.42-2.87 72.61-.33 12.55-4.76 21.77-14 29-4 3.12-7.72 6.59-11.36 10-1.65 1.53-3.31 3.06-5 4.56l-.75.68 2.23 2.4.73-.65c2.38-2.12 4.79-4.21 7.19-6.31 5.55-4.84 11.28-9.84 16.66-15 4.85-4.68 7.47-11 8-19.4q.3-4.85.63-9.69c.55-8.18 1.12-16.63 1.39-25 .49-15.44 1.12-29.74 2.07-43.44-.16 8.6 0 17.59.44 27.18.56 11.69.88 23.59 1.18 35.11q.21 7.88.44 15.75l2 .07c.73-6.88.77-13.85.82-20.58v-2.92q.07-9.76.08-19.56c0-16.45.05-33.46.85-50.15.53-11.23 2.42-23.35 5.94-38.12.92-3.89 2.64-6.39 5-7.24 2.62-.95 6.07.07 10 3q25.18 18.61 50.43 37.16c5.42 4 10.88 7.87 16.35 11.77l7.43 5.3.72.48 2-2.09-1.9-1.56c-.74-.62-1.49-1.24-2.26-1.83q-23.57-18.13-47.17-36.13-3.42-2.61-6.82-5.24c-5.78-4.44-11.76-9-17.77-13.4-3.74-2.7-7.54-3.71-11-2.91s-6.28 3.32-8.37 7.3a35.57 35.57 0 0 0 -2.23 5.24 226.26 226.26 0 0 1 8-29.81c1.17-3.57 2.54-5.54 4.18-6s3.93.48 6.93 2.94c10.19 8.34 20.09 17.12 29.35 25.4 9.06 8.1 18.19 16.43 27 24.49l11.47 10.45a1.63 1.63 0 0 0 .52.57c13.32 10.56 26.52 24.36 30.13 41.44 1.64 17.48 1.11 35.5.8 53.09a1 1 0 0 0 2 .09c.54-17.97 1.34-35.72-.19-53.65z"/></g></svg>