<svg viewBox="0 0 201 201" xmlns="http://www.w3.org/2000/svg"><path d="m100.5 201a100.5 100.5 0 1 1 100.5-100.5 100.61 100.61 0 0 1 -100.5 100.5z" fill="#bcbcbb"/><g fill="#fff"><path d="m113 63.45c-.82 14.12-1.57 28.24-2.53 42.35-.19 2.88-1.26 5.69-1.83 8.55-1.06 5.28-3.27 10.2-9.29 9.94-6.19-.26-7.49-6-8.42-10.92a126.42 126.42 0 0 1 -2.39-18.54c-.53-13.34-.56-26.69-.75-40-.04-5.5 2.12-9.83 7.21-12.23 7.2-3.46 14.27-.46 16.65 7.36 1.28 4.32 1.76 13.45 1.35 13.49z"/><path d="m100.09 136.81c7.36-.21 12.87 4.83 13.22 12.12.31 6.28-6.45 12.93-12.93 12.72-6.07-.2-12-5.92-12.48-12-.52-7.16 4.66-12.65 12.19-12.84z"/></g></svg>