<svg viewBox="0 0 85.4 68.2" xmlns="http://www.w3.org/2000/svg"><g fill="none"><path d="m0 11h3.77v17.63h-3.77z"/><path d="m2.18 41.18c.65 0 .89.46.62 1-.69 1.22-1.41 2.44-2.11 3.67l-.69 1.2v7h21.8v-14.46h-13a.57.57 0 0 1 -.51-.49 2.45 2.45 0 0 1 0-.81.6.6 0 0 1 .52-.57h13v-5.3h-21.81v8.76z"/><path d="m19.76 11h-11.5c-.53 0-.64.16-.64.66v16.34a.64.64 0 0 0 .65.62h11.52c.52 0 .62-.18.62-.65 0-4.36 0-8.71 0-13.12v-3.25c0-.48-.16-.6-.65-.6z"/><path d="m53.41 47a9.33 9.33 0 1 0 9.33 9.33 9.34 9.34 0 0 0 -9.33-9.33zm0 15.22a5.89 5.89 0 1 1 5.89-5.89 5.89 5.89 0 0 1 -5.89 5.9z"/><path d="m68.18 42.17a8.47 8.47 0 0 1 -5.88-2 1.92 1.92 0 0 0 -1.46-.52h-19.2v15.27c0-.29.08-.58.14-.86a11.85 11.85 0 0 1 23.22-.06h2.53a2.3 2.3 0 0 0 .53 0 31 31 0 0 1 7-.07c2.22.26 2.64-.1 2.43-2.15a38.66 38.66 0 0 1 .05-8.26c.13-1.17.06-1.39-.64-1.39z"/><path d="m53.41 53a3.36 3.36 0 1 0 3.36 3.36 3.37 3.37 0 0 0 -3.36-3.36z"/><path d="m70.62 11.69a.67.67 0 0 0 -.78-.55h-14.42c-.6 0-.7.19-.7.74v16.42a1.73 1.73 0 0 0 1.05 1.88 4.7 4.7 0 0 1 .91.7l8.32 6.67a4.08 4.08 0 0 0 2.48.88h9.52c.4 0 .52-.1.52-.52a35.43 35.43 0 0 0 -.4-3.57 52 52 0 0 0 -1.86-7c-1.63-5.17-3.14-10.41-4.64-15.65z"/><path d="m23.65 9.67h7.31v44.38h-7.31z"/><path d="m43.06 28.72h4.9a1 1 0 0 0 .33 0 11.47 11.47 0 0 1 2 0c.5 0 .69 0 .69-.48v-16.69c0-.36-.09-.51-.48-.51a16.35 16.35 0 0 1 -2 0 1.22 1.22 0 0 0 -.57.05h-4.4a.59.59 0 0 0 -.23-.05h-1.66v17.64h1.41z"/><path d="m69.25 7.39a.44.44 0 0 1 -.13-.31 6.45 6.45 0 0 0 -6-3.25h-63.12v3.56z"/><path d="m32.82 54.05h5.87.08 1v-44.38h-7z"/><path d="m54.2 33.64a4.89 4.89 0 0 0 -3.43-1.22h-9.13v5.31h17.92s-4.56-3.35-5.36-4.09z"/></g><path d="m2.8 42.17c.27-.53 0-1-.62-1h-2.18v5.87l.69-1.2c.7-1.22 1.42-2.44 2.11-3.67z" fill="#fff"/><path d="m85.32 21.81q-1.36-4.3-2.74-8.56a2 2 0 0 0 -2.23-1.63h-5.1a.82.82 0 0 1 -1-.66.28.28 0 0 1 0-.09c-.25-1-.58-2-.85-3a10.14 10.14 0 0 0 -5.12-6.68 11 11 0 0 0 -5.28-1.19h-63v3.83h63.11a6.45 6.45 0 0 1 6 3.25.44.44 0 0 0 .13.31h-69.24v3.61h3.77v17.63h-3.77v3.79h21.8v5.29h-13a.6.6 0 0 0 -.52.57 2.45 2.45 0 0 0 0 .81.57.57 0 0 0 .51.49h13v14.47h-21.79v3.77h38.85.25 2.54v-.08a.22.22 0 0 1 0 .08 11.85 11.85 0 0 0 23.52-.06h10.9a5.54 5.54 0 0 0 1.57-.14 4.8 4.8 0 0 0 3.67-5v-12.54a39.83 39.83 0 0 0 -2-12.25c-1.3-3.95-2.41-8-3.6-12-.14-.46 0-.6.7-.5a28.11 28.11 0 0 0 3 0s2.23 7.65 2.7 8.16a1.88 1.88 0 0 0 2.22.51 1.83 1.83 0 0 0 1-2.19zm-64.9-6.95v13.12c0 .47-.1.66-.62.65h-11.53a.64.64 0 0 1 -.65-.63v-16.34c0-.5.11-.66.64-.66h11.5c.49 0 .65.12.66.6zm10.58 39.19h-7.35v-44.38h7.35zm8.82 0h-1-.08-5.92v-44.38h7zm1.85-43h1.71a.59.59 0 0 1 .23.05h4.39a1.22 1.22 0 0 1 .57-.05 16.35 16.35 0 0 0 2 0c.39 0 .48.15.48.51v16.68c0 .44-.19.52-.69.48a11.47 11.47 0 0 0 -2 0 1 1 0 0 1 -.33 0h-4.9-1.49zm0 21.38h9.13a4.89 4.89 0 0 1 3.43 1.22c.84.74 5.36 4.09 5.36 4.09h-17.95zm11.74 33.24a9.33 9.33 0 1 1 9.33-9.33 9.33 9.33 0 0 1 -9.33 9.33zm24.21-22.11a38.66 38.66 0 0 0 -.05 8.26c.21 2-.21 2.41-2.43 2.15a31 31 0 0 0 -7 .07 2.3 2.3 0 0 1 -.53 0h-2.61a11.85 11.85 0 0 0 -23.26 0c-.06.28-.1.57-.14.86v-15.26h19.2a1.92 1.92 0 0 1 1.46.52 8.47 8.47 0 0 0 5.88 2h8.86c.68.01.75.23.62 1.4zm-.54-9.22a35.43 35.43 0 0 1 .4 3.57c0 .42-.12.52-.52.52h-9.44a4.08 4.08 0 0 1 -2.52-.88l-8.36-6.67a4.7 4.7 0 0 0 -.91-.7 1.73 1.73 0 0 1 -1.05-1.88v-16.46c0-.55.1-.75.7-.74h14.45a.67.67 0 0 1 .78.55c1.5 5.24 3 10.48 4.6 15.7a52 52 0 0 1 1.87 6.99z" fill="#fff"/><path d="m53.41 50.46a5.89 5.89 0 1 0 5.89 5.88 5.89 5.89 0 0 0 -5.89-5.88zm0 9.24a3.36 3.36 0 1 1 3.36-3.36 3.36 3.36 0 0 1 -3.36 3.36z" fill="#fff"/></svg>