<svg viewBox="0 0 161.54 68.2" xmlns="http://www.w3.org/2000/svg"><g fill="#a1c42a"><path d="m71.34 44.46h3.34a1.6 1.6 0 0 1 0 .31c-.2 1.23-.4 2.47-.61 3.7 0 .35 0 .67.33.8s.53-.14.68-.4l1.75-3c.7-1.23 1.41-2.45 2.1-3.68.28-.53 0-1-.61-1h-3.32c.15-.86.28-1.68.4-2.48.1-.59.2-1.11.28-1.76a.51.51 0 0 0 -.37-.59.48.48 0 0 0 -.58.29 2 2 0 0 1 -.19.31l-2.8 4.88-1 1.65a.61.61 0 0 0 .6.97z"/><path d="m161.45 21.81q-1.35-4.3-2.73-8.56a2 2 0 0 0 -2.23-1.63h-5.11a.82.82 0 0 1 -1-.66.28.28 0 0 0 0-.09c-.24-1-.58-2-.84-3a10.14 10.14 0 0 0 -5.12-6.68 11.11 11.11 0 0 0 -5.3-1.19h-133.7c-3.42 0-5.42 2-5.42 5.44v47.07a5 5 0 0 0 4.75 5.33h.61c1.44-.07 2.9 0 4.36 0h4.28v-3.56h22v3.55h9.49a11.85 11.85 0 0 0 23.52 0h4.55a1 1 0 0 1 .26 0h41.18.24 2.55v-.08s0 .05 0 .08a11.85 11.85 0 0 0 23.52-.06h10.89a5.51 5.51 0 0 0 1.57-.14 4.8 4.8 0 0 0 3.68-5v-12.55a39.84 39.84 0 0 0 -2-12.25c-1.3-3.95-2.4-8-3.59-12-.15-.46 0-.6.7-.5a28.11 28.11 0 0 0 2.95 0s2.23 7.65 2.69 8.16a1.89 1.89 0 0 0 2.23.51 1.82 1.82 0 0 0 1.02-2.19zm-149.93 32.25h-6.39a1.36 1.36 0 0 1 -1.35-1.36v-12.24c0-.64.15-.84.83-.84h6.91zm0-16.33h-6.82c-1.12 0-.9.14-.92-.92v-3.91c0-.34.13-.49.46-.46a2.17 2.17 0 0 0 .51 0h6.77zm0-9h-7.15a.6.6 0 0 1 -.6-.6c0-4.64 0-13.5 0-16.26a.85.85 0 0 1 .85-.87h6.9zm12.15 23h-9.67v-40.73h9.64zm12.32 0h-10.12v-40.73h10.13zm21.25 13.9a9.33 9.33 0 1 1 9.33-9.33 9.33 9.33 0 0 1 -9.33 9.37zm40.7-28h-13a.6.6 0 0 0 -.52.57 2.45 2.45 0 0 0 0 .81.56.56 0 0 0 .5.49h13v14.55h-23.76-.32-5a11.86 11.86 0 0 0 -23.26 0h-7.08v-14.43h6.72 18.78a.7.7 0 0 0 .71-.57 1.6 1.6 0 0 0 0-.81.69.69 0 0 0 -.66-.5h-19.33-6.22v-5.3h7.06 52.38zm-59.44-9v-17.63h10.16a.78.78 0 0 1 .77.78v16.3c0 .49-.12.66-.63.65h-3.58zm14.55-.63v-16.34a.66.66 0 0 1 .66-.66h2.81a.67.67 0 0 1 .66.66v16.34a.67.67 0 0 1 -.66.66h-2.81a.66.66 0 0 1 -.66-.66zm7.7.66v-17.66h19.16v17.63zm35.79-.66c0 .47-.1.66-.62.65h-11.52a.62.62 0 0 1 -.64-.62v-16.37c0-.5.11-.66.63-.66h11.51c.49 0 .64.12.66.6v3.26c.01 4.41-.05 8.76-.02 13.14zm10.56 26.05h-7.31v-44.38h7.31zm8.83 0h-1-.09-5.84v-44.38h7zm-70.71-46.66h-40.5c-.94 0-.94 0-.94-1 0-.56 0-1 0-1.49a1.2 1.2 0 0 1 1-1.12h.76 133.71a6.46 6.46 0 0 1 6 3.25.46.46 0 0 0 .12.31zm81.69 25a4.89 4.89 0 0 1 3.42 1.22c.85.74 5.37 4.09 5.37 4.09h-17.92v-5.28zm-9.13-3.74v-17.65h1.7a.59.59 0 0 1 .23.05h4.41a1.19 1.19 0 0 1 .56-.05 16.35 16.35 0 0 0 2 0c.39 0 .48.15.48.51v16.73c0 .44-.19.52-.69.48a11.36 11.36 0 0 0 -2 0 1 1 0 0 1 -.33 0h-4.91zm11.77 37a9.33 9.33 0 1 1 9.33-9.33 9.34 9.34 0 0 1 -9.33 9.35zm24.2-22.11a38.66 38.66 0 0 0 0 8.26c.21 2-.21 2.41-2.42 2.15a31 31 0 0 0 -7 .07 2.4 2.4 0 0 1 -.54 0h-2.52a11.86 11.86 0 0 0 -23.27 0c0 .28-.1.57-.13.86v-15.24h19.13a1.93 1.93 0 0 1 1.46.52 8.44 8.44 0 0 0 5.87 2h8.81c.68.01.74.23.61 1.4zm-.53-9.22c.18 1.18.33 2.37.4 3.57 0 .42-.12.52-.52.52h-9.44a4.05 4.05 0 0 1 -2.48-.88l-8.36-6.67a4.76 4.76 0 0 0 -.92-.7 1.72 1.72 0 0 1 -1-1.88v-16.44c0-.55.1-.75.7-.74h14.4a.69.69 0 0 1 .79.55c1.5 5.24 3 10.48 4.61 15.7a52 52 0 0 1 1.82 6.99z"/><path d="m57.24 50.46a5.89 5.89 0 1 0 5.88 5.88 5.89 5.89 0 0 0 -5.88-5.88zm0 9.24a3.36 3.36 0 1 1 3.36-3.36 3.35 3.35 0 0 1 -3.36 3.36z"/><path d="m129.55 50.46a5.89 5.89 0 1 0 5.88 5.88 5.89 5.89 0 0 0 -5.88-5.88zm0 9.24a3.36 3.36 0 1 1 3.36-3.36 3.36 3.36 0 0 1 -3.36 3.36z"/></g></svg>