<svg viewBox="0 0 261 261" xmlns="http://www.w3.org/2000/svg" xmlns:xlink="http://www.w3.org/1999/xlink"><filter id="a" filterUnits="userSpaceOnUse" height="261" width="261" x="0" y="0"><feOffset dx="7" dy="7"/><feGaussianBlur result="blur" stdDeviation="5"/><feFlood flood-color="#173d36"/><feComposite in2="blur" operator="in"/><feComposite in="SourceGraphic"/></filter><circle cx="123.35" cy="123.88" fill="#fff" filter="url(#a)" r="112.57" stroke="#a1c42a" stroke-miterlimit="10" stroke-width="5"/><g fill="#00594e"><path d="m129.5 159.86h-44.17c0 2.66.11 5.15 0 7.62-.21 3.79-1.11 4.62-4.92 4.74-2.22.07-4.45 0-6.68 0-3 0-4.28-1.62-4.41-4.4a41.47 41.47 0 0 1 0-4.46c.13-2.18-.19-3.93-2.31-5.28s-2.21-4-2.21-6.41q.06-26.28 0-52.57v-5.89l-5.6 2.45-.55 1c4.7 1.34 4.35 4.79 4.35 8.1 0 3.56.08 7.13 0 10.69-.14 4-1.18 5-5.09 5.19a25 25 0 0 1 -3.12 0c-3.45-.22-4.94-1.53-5-4.87q-.21-6.9 0-13.81c0-1.22.57-3.12 1.41-3.49 3.11-1.38 4.83-4.18 7.28-6.17 1.52-1.3 3.85-1.8 6.32-2.85 0-2.51 0-5.3 0-8.1.1-6.65 3.66-11.2 10.06-12.14a221.7 221.7 0 0 1 53.25-1.35c3.69.35 7.37.74 11 1.23 6.94.93 10.79 5.32 10.88 12.32v8.56c4.26.49 7.49 2 9.31 5.69a1.72 1.72 0 0 0 .92.9c5.11 1.13 5.12 5 5 9-.13 3.26.05 6.53-.05 9.8-.11 3.69-1.48 5-5.13 5.25a33.37 33.37 0 0 1 -4 0c-2.41-.15-4-1.43-4-3.87a152.73 152.73 0 0 1 .08-15.58c.14-1.72 2-3.32 3.37-5.47l-5.49-2.69v5.71 52.12c0 3.23-.12 6.18-3.28 8.19-.75.48-1.06 2-1.18 3.07-.19 1.76 0 3.56-.08 5.34-.18 3.6-1.26 4.64-4.93 4.76q-3.12.09-6.23 0c-3.76-.13-4.64-1-4.84-4.81-.06-2.32.04-4.67.04-7.52zm-61.39-43.66v35.16c0 4.26.69 4.94 4.93 4.95q34.28 0 68.53 0c4.36 0 5.11-.68 5.12-4.75q.06-35 0-69.89c0-5.31-2.64-8.47-7.75-9.2-5.42-.78-10.87-1.53-16.33-1.81-15.12-.76-30.22-.61-45.25 1.6-6.79 1-9.25 3.58-9.26 10.55q-.02 16.7.01 33.39zm87.43.8c6.31.68 6.31.68 6.33-4.93 0-2.35 0-4.71 0-7.06 0-5-1-5.64-6.33-3.93zm-96.23-15.93c-4.42-1.35-6.12-1-6.23 1.36-.24 4.79-.08 9.57-.08 14.57h6.3zm22.37 59h-8.75v8.58h8.75zm51.57-.17v8.76h8.55v-8.76z"/><path d="m107.52 86.51c8.61 0 17.22-.05 25.83 0 7.4.06 10.43 3.19 10.45 10.65 0 9.06-.23 18.13.09 27.18.19 5.27-3.33 10.09-9 10.56-8 .65-15.83 2.36-23.79 3-11.32.84-22.46-1.24-33.52-3.39a8.28 8.28 0 0 1 -6.47-8.11c-.14-10.54-.2-21.09 0-31.63.11-5.06 3.7-8.1 9.24-8.18 9.06-.12 18.11 0 27.17 0zm.11 3.25c-8.89 0-17.79-.08-26.69 0-4.25.06-6.43 1.91-6.49 5.69-.16 10.08-.1 20.17 0 30.26a5.25 5.25 0 0 0 4.35 5.48c6 1.12 12 2.07 18 2.79 12.5 1.51 24.82-.05 37.08-2.46 5.3-1 6.58-2.39 6.6-7.58q0-13.35 0-26.7c0-5.65-1.74-7.45-7.44-7.52-8.5-.03-16.95.04-25.41.04z"/><path d="m83.38 151c-1.48 0-3 .06-4.43 0-4.53-.21-6.46-2.28-6.28-6.66.16-4 2.28-5.94 6.68-5.78a95.44 95.44 0 0 1 10.12 1 5.92 5.92 0 0 1 5.21 6.16c-.21 2.93-2.28 5-5.55 5.24-1.91.15-3.83 0-5.75 0zm.08-3.37a27.72 27.72 0 0 0 5.32-.1c.9-.18 2.22-1.39 2.22-2.14a3.21 3.21 0 0 0 -2-2.4 56.87 56.87 0 0 0 -10.15-1c-.91 0-2.28 1.57-2.64 2.67-.52 1.64.55 2.86 2.37 3 1.62.06 3.25-.02 4.88-.02z"/><path d="m131.15 150.93c-1.91 0-3.85.15-5.75 0a5.53 5.53 0 0 1 -5.25-5.07 5.93 5.93 0 0 1 4.62-6.19 89.32 89.32 0 0 1 11.87-1.06c3.55-.06 5.45 2.3 5.51 6s-1.62 6-5.25 6.3c-1.9.18-3.83 0-5.75 0zm0-3.33v.07c1.63 0 3.38.35 4.85-.12 1.08-.35 2.49-1.8 2.49-2.76s-1.49-2.79-2.36-2.79a61.71 61.71 0 0 0 -10.57 1.08c-.75.13-1.62 1.66-1.72 2.61 0 .56 1.24 1.69 2 1.82a33.53 33.53 0 0 0 5.36.09z"/><path d="m130.24 79.92c-4.89 1.56-45.24 1.16-49-.94 1.6-.62 2.65-1.38 3.7-1.38q21.33-.12 42.66 0c1 0 2 .75 3.06 1.15z"/></g><path d="m149.49 126.83a2.34 2.34 0 0 0 .49-.51 30.94 30.94 0 0 0 -12.45 24.84 31.38 31.38 0 0 0 .4 5c0-.31 0-.63-.07-.94-1.22-11.56 2.59-21.05 11.63-28.39z" fill="none"/><path d="m144 169.78v.32a31 31 0 0 0 18.72 11.51h1.18a32.63 32.63 0 0 1 -19.9-11.83z" fill="none"/><path d="m149.49 126.83c-9 7.34-12.85 16.83-11.63 28.37 0 .31 0 .63.07.94a30.85 30.85 0 0 0 6.06 14v-.32a32.63 32.63 0 0 0 19.9 11.83h8.32a1.35 1.35 0 0 1 -.33-.18l.7-.1a30.36 30.36 0 0 0 22.1-15c1.41-2.38 1.15-3.52-1.05-5.18-1.88-.41-3.1.38-4 2-5.45 9.24-15.47 14-25.52 12.19a25.25 25.25 0 0 1 -20.17-20.47c-2.21-12.45 7-25.56 19.63-27.9a24.46 24.46 0 0 1 26 12c1.24 2.13 2.09 2.51 4.39 2 1.85-1.52 2.08-2.73.92-4.78a30.47 30.47 0 0 0 -26.94-15.59 25.9 25.9 0 0 0 -10.06 1.81c-.46.19-.74.22-.91.14a31.28 31.28 0 0 0 -7 3.91 2.34 2.34 0 0 1 -.48.33z" fill="#00594e"/><path d="m189.54 138.87a24.46 24.46 0 0 0 -26-12c-12.62 2.34-21.84 15.45-19.63 27.9a25.25 25.25 0 0 0 20.17 20.47c10.05 1.82 20.07-2.95 25.52-12.19.95-1.61 2.17-2.4 4-2 1.42-2.11 1.6-4.56 1.91-7a3.5 3.5 0 0 1 -2.64-2.37c-.5-1.74.54-3.19 2.64-3.73 0-2.52-1-4.83-1.61-7.21-2.27.64-3.12.26-4.36-1.87zm-7.19 6.24q-8.41 8.41-16.82 16.81a3 3 0 0 1 -4.6 0q-3.48-3.39-6.88-6.87a3 3 0 1 1 4.22-4.27c1.4 1.35 2.81 2.7 4.11 4.13.71.77 1.09.61 1.74 0q6.82-6.92 13.73-13.76c1.49-1.49 3.05-1.69 4.38-.59a2.72 2.72 0 0 1 1.09 2.31 3 3 0 0 1 -.97 2.24z" fill="#a1c42a"/><path d="m192.9 151.77a3.5 3.5 0 0 0 2.64 2.37c2.25-.52 3.34-1.61 3.25-3.24s-1.16-2.56-3.25-2.86c-2.1.54-3.14 1.96-2.64 3.73z" fill="#00594e"/><path d="m182.23 140.51c-1.33-1.1-2.89-.9-4.38.59q-6.85 6.9-13.73 13.76c-.65.65-1 .81-1.74 0-1.3-1.43-2.71-2.78-4.11-4.13a3 3 0 1 0 -4.22 4.27q3.4 3.48 6.88 6.87a3 3 0 0 0 4.6 0q8.43-8.38 16.82-16.81a3 3 0 0 0 1-2.29 2.72 2.72 0 0 0 -1.12-2.26z" fill="#00594e"/></svg>