<svg viewBox="0 0 65.62 65.5" xmlns="http://www.w3.org/2000/svg"><g fill="#f6f7f9"><path d="m65.59 32.95c.53 15.05-11.9 32.62-32.8 32.54-21.01-.08-33.06-17.92-32.79-33.21.26-14.54 11.55-32.18 32.7-32.28 21.47-.1 33.6 17.91 32.88 32.95zm-5.16-.23c.25-14.78-11.63-27.65-27.57-27.62-16.75.03-27.62 13.81-27.63 27.65-.01 12.63 9.51 27.6 27.67 27.57 17.69-.03 27.88-14.23 27.54-27.6z"/><path d="m35.45 31.22c3.76 2.23 7.33 4.31 10.85 6.46 1.12.68 2.33 1.38 3.11 2.37.46.58.49 2.01.08 2.63-.43.64-1.61.96-2.5 1.07-.55.07-1.2-.48-1.77-.81-4.16-2.41-8.29-4.87-12.46-7.26-1.76-1.01-2.52-2.43-2.5-4.48.07-6.47.01-12.94.04-19.41 0-.82-.06-1.8.34-2.41.49-.73 1.45-1.57 2.22-1.57.76 0 1.92.82 2.19 1.55.44 1.19.38 2.59.39 3.91.03 5.95.01 11.9.01 17.97z"/></g></svg>