<svg viewBox="0 0 261 261" xmlns="http://www.w3.org/2000/svg" xmlns:xlink="http://www.w3.org/1999/xlink"><filter id="a" filterUnits="userSpaceOnUse" height="261" width="261" x="0" y="0"><feOffset dx="7" dy="7"/><feGaussianBlur result="blur" stdDeviation="5"/><feFlood flood-color="#173d36"/><feComposite in2="blur" operator="in"/><feComposite in="SourceGraphic"/></filter><circle cx="123.46" cy="123.31" fill="#fff" filter="url(#a)" r="112.57" stroke="#a1c42a" stroke-miterlimit="10" stroke-width="5"/><g fill="none"><path d="m94.4 137.31a2.1 2.1 0 0 0 .78 1.81c1.57 1.45 3.14 2.92 4.63 4.45a12.45 12.45 0 0 0 7.44 3.69 13.14 13.14 0 0 0 6.41-25.3c-2.14-.79-4.37-.89-7.45-.94-4.54-.34-9.31 1.58-14 3.94-.44.22-.4.44-.19.81a20.39 20.39 0 0 1 2.38 11.54z"/><path d="m133.83 192.52c0-5.08.08-10.17.07-15.25 0-2.74.16-5.48-.12-8.21-1.22-11.55 2.59-21 11.63-28.37a2.3 2.3 0 0 0 .91-1.59c1.19-7.83-.1-15.39-2.61-22.78-4.23-12.48-9.13-24.71-13.7-37.07-3.2-8.67-6.48-17.32-9.74-26-1.28-3.39-4.77-5.5-8-4.85a7.23 7.23 0 0 0 -5 9.46c4.56 12.83 9.18 25.65 13.75 38.48a2 2 0 0 0 1.42 1.33 28.58 28.58 0 0 1 5.95 2.73c1.74 1.07 2.21 2.76 1.26 4.32s-2.61 1.81-4.32.82a34.86 34.86 0 0 0 -15.69-4.25c-8.86-.5-16.87 2.3-24.53 6.35a6.37 6.37 0 0 0 -2.48 8.68 6.3 6.3 0 0 0 8.63 2.54c5.69-3.15 11.77-4.1 18.16-3.78 12.3.61 20.59 10.72 18.33 22.66-1.35 7.15-5.51 12.29-12.5 14.54s-13.58 1.11-19.15-4.06q-1.86-1.73-3.66-3.53c-4.7-4.69-3.87-2.63-4-9.38 0-.65 0-1.3-.1-1.94a12 12 0 0 0 -10.74-10.68c-.93-.1-1.31 0-1.3 1.09v20.05a11.33 11.33 0 0 0 2.79 7.39c6 7.07 11.73 14.36 17.46 21.63a18.32 18.32 0 0 1 4 13.71c-.22 2-.43 4-.65 5.94a4.09 4.09 0 0 1 -2 3h37.79a4 4 0 0 1 -1.86-2.98z"/><path d="m139.9 183.63v7.24c0 1.81-.07 3.51-2.12 4.59h22a32.65 32.65 0 0 1 -19.88-11.83z"/><path d="m136.21 78.73c2 5.31 4 10.62 6 15.92 1.42 3.8 2.86 7.59 4.29 11.39l.29-.08v-42.96a6.07 6.07 0 0 0 -.64-2.89 5.54 5.54 0 0 0 -6.15-2.79 5.37 5.37 0 0 0 -4.17 5.18c-.06 4.54 0 9.08 0 13.61a7.07 7.07 0 0 0 .38 2.62z"/></g><path d="m99.9 192.5c.22-2 .43-4 .65-5.94a18.32 18.32 0 0 0 -4-13.71c-5.73-7.27-11.46-14.56-17.46-21.63a11.33 11.33 0 0 1 -2.79-7.39c0-6.68 0-13.37 0-20.05 0-1.09.37-1.19 1.3-1.09a12 12 0 0 1 10.73 10.71c.06.64.09 1.29.1 1.94.1 6.75-.73 4.69 4 9.38q1.8 1.8 3.66 3.53c5.57 5.17 12.13 6.32 19.15 4.06s11.15-7.39 12.5-14.54c2.26-11.94-6-22.05-18.33-22.66-6.39-.32-12.47.63-18.16 3.78a6.3 6.3 0 0 1 -8.63-2.54 6.37 6.37 0 0 1 2.48-8.68c7.66-4 15.67-6.85 24.53-6.35a34.86 34.86 0 0 1 15.69 4.25c1.71 1 3.42.64 4.32-.82s.48-3.25-1.26-4.32a28.58 28.58 0 0 0 -5.95-2.73 2 2 0 0 1 -1.43-1.33c-4.57-12.83-9.19-25.65-13.75-38.48a7.23 7.23 0 0 1 5-9.46c3.22-.65 6.71 1.46 8 4.85 3.26 8.65 6.54 17.3 9.74 26 4.57 12.36 9.47 24.59 13.7 37.07 2.51 7.39 3.8 15 2.61 22.78a2.3 2.3 0 0 1 -.91 1.59c-9 7.33-12.85 16.82-11.63 28.37.28 2.73.11 5.47.12 8.21 0 5.08 0 10.17-.07 15.25a4 4 0 0 0 1.86 2.94h2.11c2-1.08 2.16-2.78 2.12-4.59-.06-2.28 0-4.56 0-7.24a32.65 32.65 0 0 0 19.9 11.83h8.32a1.08 1.08 0 0 1 -.33-.18l.7-.09a30.37 30.37 0 0 0 22.1-15.05c1.41-2.37 1.15-3.52-1.05-5.18-1.88-.4-3.1.38-4 2-5.49 9.21-15.54 14.01-25.54 12.15a25.24 25.24 0 0 1 -20.17-20.47c-2.21-12.44 7-25.55 19.63-27.9a24.45 24.45 0 0 1 26 12c1.25 2.12 2.09 2.5 4.39 2 1.86-1.53 2.08-2.74.93-4.79a30.55 30.55 0 0 0 -27-15.58 25.93 25.93 0 0 0 -10.06 1.8c-1.13.47-1.21 0-1.12-.93.1-1.24.12-2.49.12-3.74q0-26.4 0-52.8c0-5.73.34-11.48-.16-17.19a11.4 11.4 0 0 0 -17.44-8.54 11.86 11.86 0 0 0 -5.38 8.49c-1.42-3.75-2.72-7.29-4.09-10.8a12.89 12.89 0 0 0 -8.92-7.92l-1-.25-4.92-.15c0 .52-.52.41-.78.49a13 13 0 0 0 -8.47 17c4 11.43 8.16 22.83 12.25 34.24.16.46.31.93.52 1.55-2-.1-3.84-.22-5.7-.28-9.57-.37-18.34 2.63-26.57 7.17-4.87 2.7-6.79 7.23-6 12.78.14 1 0 1.46-1.1 1.31a7.17 7.17 0 0 0 -1.79.05 2.8 2.8 0 0 0 -2.73 2.83c0 8.92-.39 17.85.23 26.75a15.73 15.73 0 0 0 4 8.84q8.63 10.6 17.18 21.28a13.55 13.55 0 0 1 2.68 11.11c-.23 1.38-.35 2.77-.56 4.15a3.14 3.14 0 0 0 1.83 3.67.28.28 0 0 1 -.1.15h2.2a4.09 4.09 0 0 0 2-2.96zm-7.65-67.5c4.65-2.36 9.42-4.28 14-3.94 3.08 0 5.31.15 7.45.94a13.14 13.14 0 0 1 -6.41 25.3 12.45 12.45 0 0 1 -7.44-3.69c-1.49-1.53-3.06-3-4.63-4.45a2.1 2.1 0 0 1 -.78-1.81 20.39 20.39 0 0 0 -2.34-11.54c-.25-.41-.29-.63.15-.81zm43.53-62.5a5.37 5.37 0 0 1 4.22-5.18 5.54 5.54 0 0 1 6.18 2.83 6.07 6.07 0 0 1 .64 2.89v42.96l-.29.08c-1.43-3.8-2.87-7.59-4.29-11.39-2-5.3-4-10.61-6-15.92a7.07 7.07 0 0 1 -.47-2.62c0-4.57-.05-9.15.01-13.65z" fill="#00594e"/><path d="m185.45 152.73a24.45 24.45 0 0 0 -26-12c-12.62 2.35-21.84 15.46-19.63 27.9a25.24 25.24 0 0 0 20.18 20.51c10 1.86 20.05-2.94 25.49-12.14.95-1.62 2.17-2.4 4-2 1.43-2.11 1.6-4.56 1.91-7a3.5 3.5 0 0 1 -2.64-2.37c-.49-1.74.55-3.19 2.64-3.73 0-2.52-1-4.82-1.61-7.2-2.25.53-3.09.15-4.34-1.97zm-7.19 6.27q-8.4 8.41-16.82 16.81a3 3 0 0 1 -4.6 0c-2.31-2.27-4.61-4.56-6.87-6.87a3 3 0 1 1 4.21-4.28c1.41 1.35 2.81 2.7 4.12 4.14.7.77 1.08.61 1.73 0q6.83-6.92 13.73-13.76c1.49-1.49 3.05-1.69 4.38-.59a2.77 2.77 0 0 1 1.1 2.32 2.94 2.94 0 0 1 -.98 2.23z" fill="#a1c42a"/><path d="m188.81 165.62a3.5 3.5 0 0 0 2.64 2.37c2.25-.52 3.34-1.6 3.25-3.23s-1.16-2.57-3.25-2.87c-2.09.54-3.13 1.99-2.64 3.73z" fill="#00594e"/><path d="m178.14 154.36c-1.33-1.1-2.89-.9-4.38.59q-6.88 6.86-13.73 13.76c-.65.66-1 .82-1.73 0-1.31-1.44-2.71-2.79-4.12-4.14a3 3 0 1 0 -4.18 4.33c2.26 2.31 4.56 4.6 6.87 6.87a3 3 0 0 0 4.6 0q8.44-8.37 16.82-16.81a2.94 2.94 0 0 0 1-2.28 2.77 2.77 0 0 0 -1.15-2.32z" fill="#00594e"/></svg>