<svg viewBox="0 0 103.29 86.11" xmlns="http://www.w3.org/2000/svg"><g fill="#fff" stroke="#fdfeff" stroke-miterlimit="10" stroke-width="2"><path d="m81.66 43.2c1.06-15.99-13.11-30.93-29.65-29.74-8.27.59-12.61-2.71-16.84-8.27 17.52-10.9 56.69-1.33 59.34 38.01l6.47.37c-4.28 4.18-8.92 8.7-13.2 12.89-3.57-3.59-8.19-8.23-12.71-12.77l6.6-.49z"/><path d="m69.94 80.94c-24.12 12.15-58.72-2.8-60.39-37.47l-7.34-.87c4.76-4.62 9.35-9.08 13.92-13.51 3.96 4.19 8.47 8.95 12.92 13.66-1.81.13-4.2.31-7.75.57 1.05 4.21 1.56 8.29 3.09 11.95 5.32 12.7 18.71 19.67 32.57 17.67 1.77-.26 4.01.74 5.61 1.79 2.48 1.63 4.59 3.81 7.38 6.21z"/></g></svg>