<svg viewBox="0 0 77.45 55.51" xmlns="http://www.w3.org/2000/svg"><g fill="#fff"><path d="m0 49.62v-43.73c1.86-4.73 3.59-5.89 8.81-5.89h59.83c5.21 0 6.94 1.15 8.81 5.89v43.73c-1.87 4.73-3.59 5.89-8.81 5.89h-59.83c-5.21 0-6.96-1.17-8.81-5.89zm38.77 1.38q15.39 0 30.79 0c2.51 0 3.39-.89 3.39-3.43q.05-19.77.05-39.57c0-2.64-.86-3.5-3.49-3.5h-61.46c-2.74 0-3.56.83-3.56 3.6v39.23c0 2.88.8 3.68 3.66 3.68q15.31-.01 30.62-.01z"/><path d="m30.45 33.33a12.43 12.43 0 0 1 5.55 8.77c.39 2.61-.47 3.72-3.05 3.72h-17.68c-2.5 0-3.26-.93-3-3.4a12.12 12.12 0 0 1 5.52-9.06c-2.8-5-2.39-9.28 1.11-12.06a8.36 8.36 0 0 1 10.75.22c3.35 2.99 3.67 7.29.8 11.81zm-13.18 7.87h13.79a7.07 7.07 0 0 0 -7-5.1 6.94 6.94 0 0 0 -6.79 5.1zm10.67-13.39a3.81 3.81 0 1 0 -3.86 3.81 3.89 3.89 0 0 0 3.86-3.81z"/><path d="m38.73 14.19h-23.21c-.52 0-1.19.18-1.51-.08-.71-.55-1.66-1.3-1.71-2s.79-1.62 1.46-2.18c.39-.33 1.2-.21 1.83-.21h46.25c.57 0 1.33-.17 1.67.13.71.61 1.66 1.51 1.62 2.24s-1.13 1.46-1.84 2.03c-.33.25-1 .06-1.52.06z"/><path d="m54.59 26.31c-2.69 0-5.38 0-8.06 0-1.7 0-2.75-.83-2.8-2.12s1-2.29 2.65-2.3q8.15-.06 16.29 0c1.68 0 2.72 1 2.58 2.32s-1.11 2.13-2.6 2.12c-2.65-.04-5.38-.02-8.06-.02z"/><path d="m54.65 31.63h8.06c1.55 0 2.54.88 2.56 2.15a2.23 2.23 0 0 1 -2.48 2.28c-5.49 0-11 0-16.47 0-1.63 0-2.77-1.08-2.57-2.37a2.31 2.31 0 0 1 2.66-2.08c2.75.05 5.49.02 8.24.02z"/><path d="m52.14 41.32h5.68c1.58 0 2.52.85 2.55 2.16a2.2 2.2 0 0 1 -2.37 2.32q-5.85.08-11.69 0a2.26 2.26 0 1 1 0-4.48c1.94-.02 3.89 0 5.83 0z"/></g></svg>