<svg viewBox="0 0 80.79 80.77" xmlns="http://www.w3.org/2000/svg"><g fill="#f7f8f9"><path d="m65.59 50.66v14.85c-1.62-1.27-2.92-2.26-4.19-3.27-4.49-3.58-8.95-7.2-13.49-10.71a4.91 4.91 0 0 0 -2.73-1c-7-.14-14-.15-21.06-.24s-13.81-6.68-13.89-13.72c-.08-7.28-.16-14.56 0-21.83.16-8.42 6.51-14.57 15.02-14.67 8.36-.07 16.75-.07 25.08-.07 5.24 0 10.47.09 15.67 0 7.25-.09 14.7 6.48 14.72 14.46 0 7 .09 14 0 21.06a14.86 14.86 0 0 1 -13.11 14.81c-.56.08-1.12.18-2.02.33zm-5-5.3c2.22 0 4.14.14 6 0a9.72 9.72 0 0 0 9.1-9.81c.09-6.63.07-13.27 0-19.91 0-6.31-3.91-10.28-10.2-10.45-4.83-.19-9.69-.19-14.49-.19-9 0-18 0-27 .27a9.29 9.29 0 0 0 -8.67 9.1c-.1 7.15-.09 14.29 0 21.44a9.44 9.44 0 0 0 9.17 9.42c6.82.18 13.65.22 20.48.19a6.36 6.36 0 0 1 4.12 1.48c3.65 2.84 7.4 5.56 11.46 8.58z"/><path d="m15.15 80.77c0-4.57-.06-8.64 0-12.71 0-1.68-.29-2.4-2.2-2.63a14.37 14.37 0 0 1 -12.73-13.43c-.35-7.76-.22-15.56-.09-23.35 0-3.31 1.9-6.62 4.81-9.4v2.23c.06 9.83.06 19.66.06 29.52a10.21 10.21 0 0 0 9.1 9.54c1.9.1 3.82 0 6 0v10c.73-.43 1.17-.64 1.54-.92 3.53-2.63 7-5.34 10.6-7.88a6.48 6.48 0 0 1 3.29-1.06c3.24-.14 6.48-.05 9.84-.05v5c-2.8 0-5.59.15-8.35-.05a7.08 7.08 0 0 0 -5.33 1.93c-5.32 4.39-10.69 8.63-16.54 13.26z"/></g></svg>