<svg viewBox="0 0 60.69 60.69" xmlns="http://www.w3.org/2000/svg"><path d="m31.19 11.66a13.44 13.44 0 0 1 7.05 2.06 8.34 8.34 0 0 1 1.76 13.33c-1.4 1.45-2.94 2.77-4.44 4.11a7.42 7.42 0 0 0 -2.56 4.31c-.41 2.17-1.45 3-3.17 2.79s-2.56-1.33-2.52-3.57a8 8 0 0 1 2.51-5.84c1.36-1.34 2.79-2.61 4.21-3.9s2.53-3.07 1.79-5.22a4.38 4.38 0 0 0 -3.79-3c-2.27-.3-4.41 0-5.67 2.25a31.07 31.07 0 0 0 -1.52 3.32c-.78 1.84-2 2.52-3.75 2.07a3.07 3.07 0 0 1 -2.09-3.47c.35-4.29 4.58-8.32 9.47-9 .9-.12 1.8-.16 2.7-.24.03-.12-.04.14.02 0z" fill="#6a6a6c"/><path d="m26.9 44.08a3.36 3.36 0 0 1 3.51-3.49 3.31 3.31 0 0 1 3.49 3.51 3.5 3.5 0 0 1 -7 0z" fill="#6a6a6c"/><circle cx="30.35" cy="30.35" fill="none" r="28.35" stroke="#6a6a6c" stroke-miterlimit="10" stroke-width="4"/></svg>