<svg viewBox="0 0 77.01 76.9" xmlns="http://www.w3.org/2000/svg"><g fill="none" stroke="#fff" stroke-miterlimit="10" stroke-width="3"><path d="m49.81 9.84c-3.29-.24-2.81-2.52-2.66-4.51s-.34-3.33-2.69-3.41c-2.88-.07-5.77-.23-8.65-.41-2.19-.13-3.39.88-3.17 3 .31 3-.78 4.54-3.8 4.72a2.74 2.74 0 0 0 -1.36.47c-2.68 1.91-4.86 1.55-6.7-1.23a2.06 2.06 0 0 0 -3.43-.47c-2.51 2.24-5.08 4.44-7.37 6.89a3.22 3.22 0 0 0 .02 3.11c2.79 2.34 2.77 4.67.62 7.31a1.12 1.12 0 0 0 -.21.54c-.59 3.36-2.41 4.64-5.87 4.09a3 3 0 0 0 -2.45 1.6c-.4 3.42-.5 6.89-.59 10.35a2.11 2.11 0 0 0 2.55 2.41c3.6-.53 5.07 1.24 5.4 4.53a2.75 2.75 0 0 0 .55 1.34c1.84 2.41 1 4.2-1.23 5.74-1.67 1.15-2 2.52-.54 4.09 2.15 2.34 4.29 4.68 6.46 7 1.14 1.2 2.45 1.28 3.48 0 2.16-2.74 4.44-2.83 7-.64a2.64 2.64 0 0 0 1.31.58c3 .38 3.51 2.21 3.3 4.9-.07 1 .92 3 1.61 3.07a66.24 66.24 0 0 0 10.61.45 3.16 3.16 0 0 0 2.08-2.36c-.27-3.36 1-5.07 4.36-5.39a3.42 3.42 0 0 0 1.61-.61c2.39-1.76 4.21-1.06 5.78 1.18 1.24 1.78 2.71 2 4.33.46 2.19-2 4.39-4 6.57-6.07 1.36-1.27 1.63-2.69.07-3.93-2.54-2-2.76-4.09-.7-6.54a3.24 3.24 0 0 0 .67-1.58c.46-2.9 2.17-3.76 4.89-3.27 2.13.38 3.31-.5 3.4-2.75.11-2.78.24-5.57.43-8.35.17-2.43-.77-3.58-3.32-3.47-1.57.07-3.38.35-4.07-1.82-.09-.27-.81-.49-1.24-.49-2.87-.05-5.73 0-8.66 0 1.86 14.62-1.35 22.46-10.73 27a20.87 20.87 0 0 1 -27.4-28.62 20.41 20.41 0 0 1 9.48-9c6.3-2.94 12.64-2.54 19 .4z"/><path d="m49.81 9.84-1.27 10.25c-6.35-2.94-12.69-3.34-19-.4a20.41 20.41 0 0 0 -9.48 9 20.87 20.87 0 0 0 27.4 28.62c9.39-4.47 12.6-12.31 10.74-26.93h8.66c.43 0 1.15.22 1.24.49.69 2.17 2.5 1.89 4.07 1.82 2.55-.11 3.49 1 3.32 3.47-.19 2.78-.32 5.57-.43 8.35-.09 2.25-1.27 3.13-3.4 2.75-2.72-.49-4.43.37-4.89 3.27a3.24 3.24 0 0 1 -.67 1.58c-2.06 2.45-1.84 4.55.7 6.54 1.56 1.24 1.29 2.66-.07 3.93-2.18 2-4.38 4-6.57 6.07-1.62 1.5-3.09 1.32-4.33-.46-1.57-2.19-3.39-2.91-5.78-1.19a3.42 3.42 0 0 1 -1.61.59c-3.32.32-4.63 2-4.36 5.39a3.16 3.16 0 0 1 -2.08 2.38 66.24 66.24 0 0 1 -10.63-.49c-.69-.1-1.68-2.05-1.61-3.07.21-2.69-.29-4.52-3.3-4.9a2.64 2.64 0 0 1 -1.31-.58c-2.58-2.19-4.86-2.1-7 .64-1 1.31-2.34 1.23-3.48 0-2.17-2.31-4.31-4.65-6.46-7-1.45-1.57-1.13-2.94.54-4.09 2.25-1.5 3.07-3.29 1.25-5.7a2.75 2.75 0 0 1 -.53-1.34c-.33-3.29-1.8-5.06-5.4-4.53a2.11 2.11 0 0 1 -2.57-2.41c.09-3.46.19-6.93.59-10.35a3 3 0 0 1 2.45-1.6c3.42.55 5.28-.73 5.87-4.07a1.12 1.12 0 0 1 .21-.54c2.15-2.64 2.17-5-.62-7.31a3.22 3.22 0 0 1 0-3.13c2.29-2.45 4.86-4.65 7.37-6.89a2.06 2.06 0 0 1 3.43.51c1.84 2.78 4 3.14 6.7 1.23a2.74 2.74 0 0 1 1.36-.47c3-.18 4.11-1.76 3.8-4.72-.22-2.16 1-3.17 3.17-3 2.88.18 5.77.34 8.65.41 2.35.06 2.87 1.33 2.69 3.41s-.65 4.23 2.64 4.47z"/></g></svg>