<svg viewBox="0 0 49.86 57.71" xmlns="http://www.w3.org/2000/svg"><g fill="#6a6a6c"><path d="m22.12 57.57c-1.75-.3-3.67-2-4.58-4.78-.31-1-.25-1.95.93-2.35s1.73.32 2.12 1.31c.81 2 2.14 3 3.81 3 1.89-.1 3.14-1.12 3.79-3.22.35-1.11 1-1.6 2.13-1.26s1.19 1.24 1 2.19c-.88 3.59-4.32 5.86-9.2 5.11z"/><path d="m13.6 47.79c-2.84 0-5.69 0-8.53 0-2.06 0-4-.3-4.72-2.49a6.11 6.11 0 0 1 1.28-6.21 2.91 2.91 0 0 1 1-.77c2.56-1 3.47-3.21 3.74-5.66.42-3.65.78-7.32.85-11 .19-8.81 4-14.44 12.19-17.72a1.92 1.92 0 0 0 .91-.89 5 5 0 0 1 9.22 0 2 2 0 0 0 1 .91 17.53 17.53 0 0 1 12 16.81c.07 4.35.08 8.7 1.15 13a6.6 6.6 0 0 0 3.37 4.57 5.83 5.83 0 0 1 2.48 6.77 3.79 3.79 0 0 1 -3.54 2.66h-4.91c-1.59 0-3.18 0-4.77 0zm9-40.79a14.58 14.58 0 0 0 -11.9 15.39 39.63 39.63 0 0 1 -1.12 11.67c-.59 2.3-1.63 4.25-4 5.22a2.1 2.1 0 0 0 -.41.24 3.56 3.56 0 0 0 -1.08 3.48c.44 1.18 1.47.85 2.32.86h36.13a7.31 7.31 0 0 0 2-.05 2 2 0 0 0 1.22-1 2.82 2.82 0 0 0 -1.33-3.33c-2.52-1.19-3.62-3.32-4.23-5.87a58.65 58.65 0 0 1 -1.13-12.74 13.18 13.18 0 0 0 -5.45-11 49.73 49.73 0 0 0 -6.44-3.37c-.28-1.79-.91-2.6-2.27-2.61s-2.05.89-2.31 3.11z"/></g></svg>