<svg viewBox="0 0 42.12 52.74" xmlns="http://www.w3.org/2000/svg"><path d="m5.28 22.8c0-2 .13-4 0-5.9-.89-10.66 6.29-17.74 16.89-16.82a24.77 24.77 0 0 1 4.56.61 13.88 13.88 0 0 1 10.1 13.31v7.49 1.29c4 .94 5.28 2.53 5.28 6.6q0 8.73 0 17.47c0 3.72-2.16 5.88-5.88 5.88h-30.32c-3.73.01-5.91-2.15-5.91-5.86v-17.59c0-3.96 1.29-5.58 5.28-6.48zm15.82 26.45h15.23c1.7 0 2.31-.61 2.31-2.33q0-9.1 0-18.22c0-1.68-.64-2.34-2.34-2.34q-15.22 0-30.45 0c-1.76 0-2.37.65-2.38 2.43v18.08c0 1.79.61 2.37 2.41 2.37zm-12.2-26.42h24.46c0-3.24.15-6.36 0-9.47a10.22 10.22 0 0 0 -8.56-9.54 31.44 31.44 0 0 0 -5.58-.24 10.18 10.18 0 0 0 -10.22 8.8c-.42 3.4-.1 6.89-.1 10.45z" fill="#6b6b6d"/></svg>