<svg viewBox="0 0 112.16 112.16" xmlns="http://www.w3.org/2000/svg"><path d="m12.07 33.9h-11.91c0-7.46-.37-14.75.12-22 .4-5.98 5.91-11.33 11.9-11.68 7.1-.43 14.24-.1 21.64-.1v12c-4.95 0-10 0-15.11 0-6.71-.12-6.71-.12-6.65 6.36.02 4.97.01 9.94.01 15.42z"/><path d="m78.26 12.06v-11.85c7.51 0 15-.46 22.34.14 6.18.49 11.18 6.41 11.43 12.7.26 6.79.06 13.59.06 20.72h-12c0-5.88-.13-11.66.06-17.43.1-3.27-1.11-4.44-4.36-4.33-5.65.18-11.3.05-17.53.05z"/><path d="m0 78.26h12c0 6 .13 11.76-.05 17.52-.1 3.26 1.07 4.46 4.34 4.35 5.64-.18 11.3 0 17.35 0v11.74c-7.47 0-15.1.53-22.61-.17-6-.56-10.56-6.45-11-12.54-.14-1.82 0-3.66 0-5.49-.03-5.02-.03-9.99-.03-15.41z"/><path d="m78.26 112.08v-12c6 0 11.75-.13 17.52 0 3.24.1 4.46-1.06 4.35-4.33-.18-5.64 0-11.3 0-17.35h11.85c0 7.29.46 14.74-.14 22.11-.51 6.21-6.4 11.21-12.68 11.46-6.84.33-13.65.11-20.9.11z"/><path d="m34.26 45.82v-11.42h11.53v11.42z"/><path d="m77.79 46h-11.34v-11.61h11.34z"/><path d="m61.85 50.36v11.5h-11.44v-11.5z"/><path d="m34.45 66.23h11.32v11.61h-11.32z"/><path d="m77.75 77.89h-11.43v-11.43h11.43z"/></svg>