<svg viewBox="0 0 96.11 110.7" xmlns="http://www.w3.org/2000/svg"><g fill="#f7f8f9"><path d="m54 110.69c-9 0-17.91 0-26.87 0a7.59 7.59 0 0 1 -2.69-.38 1.45 1.45 0 0 1 .19-2.71 9.69 9.69 0 0 1 2.75-.24h18.52 2.47c1.54-.13 1.79-.46 1.38-2-.58-2.08-1.21-4.14-1.85-6.21q-3.4-10.94-6.77-21.84c-.84-2.69-.89-2.72-3.7-1.88l-33.66 10.16a8.6 8.6 0 0 1 -1.49.41c-1.65.2-2.34-.3-2.28-2a39.64 39.64 0 0 1 2.74-12.95c4.78-12.18 13.1-21 25.18-26.18.47-.2.92-.47 1.4-.63 1.26-.4 1.5-1.18 1.14-2.39a1.33 1.33 0 0 1 1.14-1.85 2.05 2.05 0 0 1 1.69.9c.63 2 2 1.55 3.44 1.29 17.86-3.19 32.59 2.37 44.51 15.81a8 8 0 0 1 .6.71c1.32 1.91 1 2.94-1.21 3.65-4.8 1.52-9.62 3-14.44 4.43q-9.75 2.93-19.51 5.8c-.59.18-1.18.38-1.76.58a1.47 1.47 0 0 0 -1.05 2.14c.54 1.55 1 3.15 1.44 4.72q3.8 12.39 7.6 24.77c.76 2.46.79 2.49 3.49 2.5h24.09a9 9 0 0 1 2.75.2 2 2 0 0 1 1.21 1.5 2.09 2.09 0 0 1 -1.18 1.53 8.64 8.64 0 0 1 -2.75.19zm-33.3-40.69v1.85c0 .82.06 1.65.14 2.46.23 2.45.46 2.63 2.87 1.91q10.95-3.22 21.87-6.55 6.49-2 13-3.94c1.63-.5 1.89-.87 1.24-2.12-4.24-8.11-10-14.51-19.13-17.25-5.39-1.61-9.68-.21-13.21 4-4.84 5.64-6.8 12.31-6.78 19.64zm28.79-25.44a11.1 11.1 0 0 0 -1.44 0 6.46 6.46 0 0 0 -1.13.36 5.29 5.29 0 0 0 .78.85c.77.52 1.59.94 2.36 1.46a38 38 0 0 1 12.6 14.91c1 1.9 1 1.95 3.06 1.37 3.46-1 6.91-2 10.34-3.07 2-.63 2.2-1.12.7-2.67a43.35 43.35 0 0 0 -27.27-13.21zm-45.06 37.54c4.39-1.39 8.51-2.65 12.6-4 .4-.14.74-.92.83-1.45a7.43 7.43 0 0 0 -.1-2.15 34.73 34.73 0 0 1 2.95-19.53 17.08 17.08 0 0 0 .68-1.72.57.57 0 0 0 -.21-.52.66.66 0 0 0 -.55 0 8.72 8.72 0 0 0 -1 .72 43.36 43.36 0 0 0 -16 26 3.19 3.19 0 0 0 -.12 1.52c.15.42.62.76.92 1.13z"/><path d="m75 15a6.25 6.25 0 1 1 -.22 12.49 6 6 0 0 1 -6.23-6.48 6.11 6.11 0 0 1 6.45-6.01zm3 6.19a3.14 3.14 0 0 0 -3.15-3.11 3.22 3.22 0 0 0 -3.09 3.21 3.11 3.11 0 0 0 3.18 3.06 3 3 0 0 0 3-3.12z"/><path d="m59.3 22.8a32.59 32.59 0 0 1 -4.3-.06 1.91 1.91 0 0 1 -1.25-1.39c0-.52.64-1.16 1.15-1.54a2.71 2.71 0 0 1 1.5-.23c2 0 4.11-.06 6.17 0 1.91.05 2.83.67 2.71 1.79-.16 1.6-1.45 1.49-2.57 1.52s-2.26 0-3.4 0z"/><path d="m90 22.85a26.23 26.23 0 0 1 -4-.06 2.52 2.52 0 0 1 -1.77-1.33c-.3-1.1.79-1.71 1.67-1.75 2.74-.14 5.5-.08 8.26-.09a1.59 1.59 0 0 1 .59.14c.8.32 1.6.82 1.28 1.76a2.19 2.19 0 0 1 -1.48 1.24 41.12 41.12 0 0 1 -4.58 0z"/><path d="m76.34 37.26a26.38 26.38 0 0 1 -.07 4 1.92 1.92 0 0 1 -1.37 1.27 1.9 1.9 0 0 1 -1.41-1.21c-.13-3-.13-5.93 0-8.89 0-.41 1-1.12 1.46-1.07a1.94 1.94 0 0 1 1.33 1.32 39.13 39.13 0 0 1 .07 4.6z"/><path d="m76.37 5.72v4a1.45 1.45 0 0 1 -1.5 1.58c-1 0-1.47-.65-1.49-1.56 0-2.65 0-5.29 0-7.94 0-.89.38-1.72 1.33-1.77a1.58 1.58 0 0 1 1.68 1.74c.01 1.3-.02 2.62-.02 3.95z"/><path d="m82.56 14.91c-1.16-.05-1.94-1.23-1.24-2.11a21 21 0 0 1 3.68-3.6 1.34 1.34 0 0 1 2 1.26c0 1.4-3.11 4.54-4.44 4.45z"/><path d="m68.37 29.18c0 1.25-3 4.26-4.3 4.34s-2.07-1.13-1.38-2a21.5 21.5 0 0 1 3.62-3.64c.88-.7 2.09.17 2.06 1.3z"/><path d="m66.81 14.91c-.19-.06-.56-.07-.76-.26a31.64 31.64 0 0 1 -3.18-3.27 1.88 1.88 0 0 1 .13-1.85 1.87 1.87 0 0 1 1.84-.23 19.48 19.48 0 0 1 3.38 3.47 1.41 1.41 0 0 1 -1.41 2.14z"/><path d="m87 32a1.33 1.33 0 0 1 -2 1.32 20.27 20.27 0 0 1 -3.65-3.58c-.65-.8.32-2.12 1.37-2.07s4.2 3.2 4.28 4.33z"/></g></svg>