<svg viewBox="0 0 73.2 91.37" xmlns="http://www.w3.org/2000/svg"><g fill="#fdfeff"><path d="m70.11 34.06c0 10.5-4.72 18.71-12.13 25.84-8 7.74-7.91 7.89 2.72 11.46 3 1 6 1.85 8.94 3.09 1.36.55 2.36 1.92 3.56 2.92-1.08 1-2 2.58-3.29 3q-15.22 5.54-30.61 10.63a9.05 9.05 0 0 1 -5.3 0q-15.16-5-30.16-10.46c-1.48-.54-2.57-2.12-3.84-3.23 1.24-1 2.34-2.27 3.74-2.8 5-1.87 10-3.55 15.09-5.15 3.19-1 4.33-2.19 1.3-4.89-2.6-2.32-5-4.85-7.41-7.42-9.88-10.74-12.25-23.21-6.72-36.53s16.28-19.96 30.44-20.52c18.56-.68 33.73 15 33.67 34.06zm-33.54-28.85c-11.22.67-20.26 5.65-25.25 16.23s-4 21 3.6 29.91c6 7.07 12.93 13.41 19.65 19.86.78.75 3.52.72 4.32 0 6.61-6.36 13.35-12.62 19.35-19.51 7.72-8.87 8.75-19.32 4-29.87s-13.74-15.83-25.67-16.62zm.27 81.32c7.63-2.63 15.16-5.19 22.67-7.88.36-.13.52-2 .4-2.06-4.21-1.52-8.4-3.46-12.76-4.06-1.74-.24-4.07 2.35-5.82 4-4.72 4.41-4.93 4.72-9.36-.3-3.26-3.7-6.44-4.68-10.79-2.41-2.69 1.4-5.52 2.53-8.28 3.78 2.8 1.26 5.53 2.68 8.41 3.72 5.13 1.84 10.36 3.48 15.53 5.21z"/><path d="m49.25 33.4a12.35 12.35 0 0 1 -12.32 12.89 12.39 12.39 0 0 1 -12.79-12.45 12.56 12.56 0 1 1 25.11-.44zm-12.33-7.13a7.67 7.67 0 0 0 -7.71 7 7.51 7.51 0 0 0 15 .42 7.67 7.67 0 0 0 -7.29-7.42z"/></g></svg>