<svg viewBox="0 0 556.42 225" xmlns="http://www.w3.org/2000/svg"><path d="m556.42 73v22c-4 6.08-7.69 7.84-13.06 6.19-4.84-1.49-6.74-4.82-6.75-11.88 0-3.83.09-7.66 0-11.48-.14-4.28 1-7.74 4.73-10.35 2.56-1.8 2.41-6-.18-6.9-1.88-.66-4.11-.33-6.64-.47v6.47q0 61.68 0 123.35c0 9.19-4.9 14.18-14 14.51-1.76.06-3.52.17-5.43.27-.82 7.57 2.19 16-6.6 20.29h-30c-9.77-4-6.13-13-7.25-20.19h-54.66c-.78 7.54 2.4 16.21-7.16 20.19h-30c-9.16-4.28-5.41-13.15-6.72-20.23-1.2-.14-2-.28-2.81-.31-12.76-.48-16.54-4.36-16.54-17v-128.72c-3.55 1.55-6.75 1.95-8.05 3.74-2.25 3.06 1.26 4.61 3 6.71a12.44 12.44 0 0 1 2.78 6.65 148.15 148.15 0 0 1 .07 16.46 9.34 9.34 0 0 1 -9.12 9.42c-5.16.35-8.24-2.65-10.63-6.72v-22c3.09-4.23 7-7.73 7.5-13.74.37-4 4.66-5.74 8.76-6.13 1.76-.17 3.54-.18 5.67-.29v-25.3c0-16 4.24-22.12 19.07-27.54h143c3.69 1.82 7.79 3.1 11 5.57 5.52 4.29 8.13 10.37 8.11 17.48v30.06c2.36 0 4-.12 5.67 0 4.1.37 8.4 2.1 8.76 6.12.53 6.04 4.39 9.54 7.48 13.77zm-146.25 124.5c0-2.42-.06-4.07 0-5.72.33-7.73 5.31-12.87 12.92-12.94q20.75-.19 41.49 0c7.71.06 12.71 5.11 13.07 12.8.08 1.78 0 3.57 0 5.63 2.05.14 3.5.32 5 .32q18 0 36 0c7.08 0 8.86-1.82 8.87-8.87q0-82 0-163.95c0-11.6-6.28-17.72-18-17.72h-130c-13.38 0-19.15 5.74-19.16 19.07v161.46 3.5c.07 3.76 2.13 6.27 5.71 6.33 14.47.21 28.93.09 44.1.09zm60.11-.12c1.42-9.24-.53-11.68-8.89-11.69q-17.7 0-35.42 0c-8 0-10.39 3.43-8.11 11.68zm-91.73 7.31v10s1.61 4.52 4.67 4.51c7.64 0 15.29.19 22.91-.17 1.53-.07 4-2.06 4.24-3.48.62-3.47.21-7.12.21-10.86zm98.65.06c0 3.27.12 6.25 0 9.21-.19 3.88 1.6 5.39 5.38 5.28 4.64-.14 9.3 0 13.95 0 13.47-.13 13.07 2.14 12.68-13.34 0-.28-.27-.57-.54-1.11zm-131.8-120.88c0-2.65.5-5.45-.17-7.92a6.06 6.06 0 0 0 -4-3.66c-1.09-.18-3.6 2.06-3.7 3.36a99.91 99.91 0 0 0 0 16.41c.12 1.4 2.62 3.62 4 3.59s3.37-2.25 3.78-3.84c.57-2.5.1-5.28.09-7.94zm197 .28c0 2.66-.5 5.45.18 7.92a6 6 0 0 0 4.07 3.6c1.09.16 3.56-2.08 3.67-3.38a101.15 101.15 0 0 0 0-16.42c-.11-1.39-2.65-3.6-4-3.55s-3.33 2.29-3.74 3.9c-.58 2.49-.15 5.27-.14 7.93z" fill="#bcbcbc"/><path d="m444.16 18.63q32.47 0 65 0c8.71 0 11.71 3 11.72 11.64q0 50.47 0 101c0 7.74-1.72 10.11-9.09 12.07a259.44 259.44 0 0 1 -136.12-.13c-6.75-1.81-8.64-4.32-8.64-11.41q-.06-51 0-102c0-8.06 3.13-11.16 11.18-11.17q32.96-.04 65.95 0zm-.38 5.52h-64c-6.63 0-7.24.6-7.25 7 0 33.16.08 66.32-.09 99.48 0 4.56 1.67 6.4 6 7.51a257.13 257.13 0 0 0 130.83.06c4.52-1.17 6.19-3.1 6.16-7.87-.19-33-.09-66-.1-99 0-6.75-.53-7.25-7.54-7.25z" fill="#bcbcbc"/><path d="m384.65 185c-2.82 0-5.65.11-8.46 0-5.55-.27-9.14-4.12-9.18-9.66-.05-5.7 3.25-9.64 8.9-9.92s11.62-.28 17.41 0c5.48.26 9.14 4.52 9.08 9.88-.07 5.64-3.92 9.5-9.79 9.71-2.61.07-5.31-.01-7.96-.01zm.52-14c-2.83 0-5.77-.47-8.44.17-1.6.39-3.83 2.49-3.86 3.87s2.25 3.84 3.69 4a89.11 89.11 0 0 0 15.92 0c1.45-.13 2.7-2.5 4-3.84-1.46-1.4-2.7-3.45-4.44-4-2.04-.72-4.55-.2-6.87-.2z" fill="#bcbcbc"/><path d="m503.22 185c-2.82 0-5.65.12-8.46 0a9.45 9.45 0 0 1 -9.31-9.67c-.08-5.36 3.58-9.64 9.05-9.91 5.79-.28 11.62-.29 17.41 0s9.18 4.45 8.9 10.39c-.25 5.5-3.89 9-9.63 9.2-2.65.06-5.31-.01-7.96-.01zm-.2-5.79c2.83 0 5.75.43 8.44-.17 1.47-.33 3.7-2.55 3.54-3.64-.22-1.59-2.17-4-3.56-4.16a93.8 93.8 0 0 0 -16.42 0c-1.35.12-3.24 2.62-3.44 4.21-.14 1.1 2 3.25 3.51 3.59 2.51.61 5.27.17 7.91.17z" fill="#bcbcbc"/><path d="m381.26 93.91q0-14.46 0-28.91c0-2.57-.08-5.76 3.42-5.14 1.45.26 3.35 3.45 3.38 5.33.25 18.94.15 37.89.15 56.83 0 2.72 0 5.92-3.68 5.85-3.9-.07-3.24-3.47-3.25-6-.05-9.35-.03-18.65-.02-27.96z" fill="#bcbcbc"/><path d="m381.27 38.75c0-1.32-.36-2.77.09-3.92a19.92 19.92 0 0 1 2.7-3.95c1.36 1.12 3.66 2.09 3.88 3.4a32.19 32.19 0 0 1 0 10.32c-.22 1.33-2.47 2.33-3.8 3.47-1-1.29-2.34-2.46-2.76-3.91-.48-1.67-.11-3.59-.11-5.41z" fill="#bcbcbc"/><path d="m81.69 187.75 399.54-57.7-371.39-94.49" fill="#bcbcbc" opacity=".5"/><circle cx="81.69" cy="109.06" fill="#fff" r="78.69" stroke="#bcbcbc" stroke-miterlimit="10" stroke-width="6"/><g fill="#00594e"><path d="m68.75 133.37c.5 7.14-1.55 8.42-8.35 8.45-7.36 0-8.82-1.38-8.79-8.83 0-6.72 1.27-8.44 8.5-8.41 7.53.04 9.06 1.22 8.64 8.79zm-8.5-4.5c-5.09.07-4.33-.67-4.34 4.31s-.65 4.36 4.33 4.35 4.28.74 4.32-4.34c.03-4.32.01-4.32-4.31-4.32z"/><path d="m60.11 98.72c-7.13.48-8.48-1.39-8.5-8.52s1.54-8.63 8.56-8.61c7.21 0 8.72 1.29 8.68 8.67s-1.21 8.91-8.74 8.46zm4.46-8.51c0-4.34 0-4.37-4.34-4.34-5 0-4.33-.64-4.32 4.37s-.74 4.25 4.35 4.29c4.31.04 4.31.01 4.31-4.32z"/><path d="m103.11 98.72c-7.16.43-8.48-1.18-8.5-8.47s1.49-8.65 8.69-8.66c7 0 8.58 1.46 8.55 8.62s-1.25 9-8.74 8.51zm.12-4.18c4.34 0 4.36 0 4.33-4.33 0-5 .64-4.34-4.36-4.33s-4.26-.74-4.3 4.36c-.04 4.3-.01 4.3 4.33 4.3z"/><path d="m38.86 83.07c-.86-9.78 4.21-15.14 14.31-14.26a41 41 0 0 0 4.57 0c1.48 0 2.41.65 2.4 2.12s-1.03 2.07-2.46 2.07c-2.59 0-5.19 0-7.78 0-4.14.06-6.79 2.74-6.85 6.92v7.32c0 1.56-.34 2.86-2.15 2.83s-2.1-1.4-2-2.92-.04-2.71-.04-4.08z"/><path d="m110.44 68.93a38.29 38.29 0 0 1 5.25 0 10.48 10.48 0 0 1 8.88 10.13c.08 2.82 0 5.64 0 8.46 0 1.54-.56 2.6-2.2 2.55s-2-1.12-2-2.53c0-2.59 0-5.18 0-7.78a6.53 6.53 0 0 0 -6.73-6.76c-2.59 0-5.19 0-7.78 0-1.41 0-2.48-.48-2.53-2s1-2.24 2.53-2.2 3 0 4.58 0z"/><path d="m53 154.42a32.18 32.18 0 0 1 -5.47 0 10.44 10.44 0 0 1 -8.62-10.12c-.07-2.74 0-5.49 0-8.23 0-1.48.36-2.68 2-2.72 1.81 0 2.21 1.25 2.18 2.81v7.09c0 4.57 2.66 7.16 7.28 7.19h6.63c1.55 0 3.12.06 3.17 2.05s-1.45 2.21-3 2.15c-1.37 0-2.75 0-4.12 0z"/><path d="m110.15 154.57c-1.37 0-2.75 0-4.12 0s-2.68-.37-2.7-2c0-1.82 1.26-2.2 2.82-2.17h6.63c5.1 0 7.62-2.5 7.63-7.53 0-2.37 0-4.73 0-7.09 0-1.43.56-2.45 2.06-2.47s2.15.89 2.13 2.37c0 3.05.09 6.11-.06 9.15a10.48 10.48 0 0 1 -9.82 9.71c-1.52.08-3 0-4.57 0z"/><path d="m94.68 137.48h4c.55-1.55-.39-4.17 2.37-4.17s1.81 2.47 2.28 4.09h4.14c0-.75-.14-1.54.16-2.05a13.23 13.23 0 0 1 2-2.08c.72.72 1.81 1.32 2.07 2.18a13.07 13.07 0 0 1 .09 3.86 2.16 2.16 0 0 1 -2.41 2.41q-8.34 0-16.69 0a2.38 2.38 0 0 1 -1.27-.37c-1.42-.93-1.57-6.59-.22-7.65a2.07 2.07 0 0 1 3.26 1.13 21.44 21.44 0 0 1 .22 2.65z"/><path d="m86.15 103.24v4.08c.72.05 1.47-.13 1.89.17a17 17 0 0 1 2.2 2.13c-.77.66-1.49 1.81-2.3 1.88a46.9 46.9 0 0 1 -8.21 0c-.8-.08-1.5-1.28-2.24-2a12.92 12.92 0 0 1 2.08-2c.5-.32 1.32-.14 2.13-.19v-4.19h-5.45c-1.56 0-3.06-.28-3-2.27s1.57-1.95 3-1.95h10.75c1.49 0 3.13-.05 3.2 2s-1.49 2.2-3 2.24c-.33 0-.63.05-1.05.1z"/><path d="m85.92 124.69v-4.34c-.78 0-1.59.13-2.08-.18-.77-.5-1.85-1.34-1.84-2a2.86 2.86 0 0 1 1.83-2 9 9 0 0 1 4.28 0 3.19 3.19 0 0 1 2 2.12c.26 2.71.1 5.47.1 8.21a2.15 2.15 0 0 1 -2.42 2.38c-4.1 0-8.21 0-12.32 0-1.4 0-2.55-.8-2.18-2.23a3.14 3.14 0 0 1 2.26-1.84c3.45-.24 6.84-.12 10.37-.12z"/><path d="m86.05 85.87c-3.43 0-6.61 0-9.79 0-1.57 0-3.06-.14-3-2.16 0-1.85 1.46-2 3-2h11.19c2 0 2.94.81 2.88 2.86-.06 2.43 0 4.87 0 7.3 0 1.54-.58 2.67-2.15 2.63s-2.18-1.26-2.18-2.77c.08-1.82.05-3.64.05-5.86z"/><path d="m107.69 124.61c-.59 4.26-.59 4.26-4.91 4.26-1.9 0-3.81 0-5.72 0a2.1 2.1 0 0 1 -2.35-2.42 14.69 14.69 0 0 1 .08-3.64c.25-.91 1.06-2.12 1.84-2.3 1.38-.34 2.18.73 2.26 2.18 0 .6.08 1.19.13 1.89h4a16.15 16.15 0 0 1 .28-2.28c.15-.54.52-1.46.83-1.47a49.78 49.78 0 0 1 6.69 0c.34 0 .93 1.32.79 1.87a3.09 3.09 0 0 1 -1.58 1.65 7.12 7.12 0 0 1 -2.34.26z"/><path d="m77.51 137.42c-.08 1.11.12 2-.23 2.57-.47.72-1.38 1.61-2.08 1.58a2.65 2.65 0 0 1 -1.88-1.73 13.08 13.08 0 0 1 0-4.75 2.77 2.77 0 0 1 1.92-1.77 59.19 59.19 0 0 1 8.63 0c.74.06 1.4 1.25 2.09 1.91-.72.73-1.36 2-2.16 2.09a43.45 43.45 0 0 1 -6.29.1z"/><path d="m107.58 107.24c0-.78-.23-1.59 0-2.1.43-.76 1.28-1.86 1.85-1.81.79.08 2.08 1 2.14 1.71a57.49 57.49 0 0 1 0 8.9 2.79 2.79 0 0 1 -2 1.85c-.67 0-1.5-1.13-2-1.93-.3-.5-.11-1.31-.15-2-1.59-.57-4.27.5-4.12-2.42.17-2.53 2.43-1.81 4.28-2.2z"/><path d="m64.31 107.37c-.63 0-1.44.24-1.92-.05-.79-.49-1.86-1.32-1.88-2a2.78 2.78 0 0 1 1.81-2 14.62 14.62 0 0 1 4.53-.07c2.52.25 1.65 2.46 2.08 4.06.73.06 1.61-.11 2.16.24.78.5 1.83 1.37 1.83 2.09s-1.16 1.44-2 1.93c-.44.27-1.19.06-1.79.06-4.13-.03-4.13-.03-4.82-4.26z"/><path d="m58 120.22a15.83 15.83 0 0 1 -4.08-.09 1.79 1.79 0 0 1 -.7-.38 2.17 2.17 0 0 1 -.11-3.31 1.07 1.07 0 0 1 .6-.3 52.05 52.05 0 0 1 8.65 0 1.29 1.29 0 0 1 .73.42 2.17 2.17 0 0 1 -.37 3.41 1.29 1.29 0 0 1 -.41.16 19.33 19.33 0 0 1 -4.31.09z"/><path d="m94.72 109.37a17.87 17.87 0 0 1 .08-4.08c.2-.8 1.21-1.94 1.87-2a2.75 2.75 0 0 1 2.08 1.75 55.76 55.76 0 0 1 0 8.86c-.06.71-1.32 1.33-2 2-.68-.75-1.73-1.41-1.94-2.27a18.12 18.12 0 0 1 -.09-4.26z"/><path d="m55.87 107.51c0 .76.25 1.66-.07 2.24-.4.74-1.26 1.69-1.94 1.7a2.62 2.62 0 0 1 -2-1.56 14.12 14.12 0 0 1 0-5 2.63 2.63 0 0 1 2-1.59c.68 0 1.56 1 1.93 1.72a6.13 6.13 0 0 1 .08 2.49z"/><path d="m73.23 120.22c-.76 0-1.66.25-2.25-.07-.79-.43-1.88-1.31-1.87-2a2.86 2.86 0 0 1 1.84-2 9.15 9.15 0 0 1 4.29 0c.84.23 1.43 1.38 2.14 2.11a11.64 11.64 0 0 1 -2.13 1.92c-.52.27-1.33.04-2.02.04z"/><path d="m77.81 90.32c1.34.19 3.71-.69 3.73 2.05s-2.23 2.1-3.9 2.16a4.55 4.55 0 0 1 -2.25-.07 11.92 11.92 0 0 1 -2.17-2.15 14.56 14.56 0 0 1 2.32-1.94c.53-.29 1.34-.05 2.27-.05z"/></g></svg>