<svg viewBox="0 0 83.25 65.28" xmlns="http://www.w3.org/2000/svg"><g fill="#fff"><path d="m41.67 0c9.85 0 19.69.41 29.39 2.31 2.65.52 5.23 1.4 7.82 2.17a9.72 9.72 0 0 1 2 1 4.44 4.44 0 0 1 2.38 4.3q-.15 8 0 15.94a4.52 4.52 0 0 1 -2.49 4.37 11.74 11.74 0 0 1 -2.41 1.13 2.77 2.77 0 0 0 -2 2.09c-1.21 3.58-2.46 7.16-3.82 10.69a33.08 33.08 0 0 1 -61.95-.38q-2-5.38-3.86-10.8a2.14 2.14 0 0 0 -1.36-1.43 22.84 22.84 0 0 1 -3.65-1.87 3.67 3.67 0 0 1 -1.72-3.32q0-8.41 0-16.83a4.07 4.07 0 0 1 2-3.63 23 23 0 0 1 8-3 137.31 137.31 0 0 1 26.65-2.74zm-38.73 22.93a44.16 44.16 0 0 1 11.85-3.25 178.32 178.32 0 0 1 32.21-1.81 133.63 133.63 0 0 1 26.23 2.75c2.33.52 4.6 1.35 7 2.07v-1c0-3.64-.13-7.29 0-10.92a3 3 0 0 0 -2.3-3.49c-.5-.16-1-.43-1.46-.54-3.17-.74-6.47-1.74-9.77-2.22a165 165 0 0 0 -28-1.65 138.46 138.46 0 0 0 -27.26 2.57 51.38 51.38 0 0 0 -7.18 2.33 2.22 2.22 0 0 0 -1.26 1.47c-.11 4.48-.06 8.98-.06 13.69zm73.49 1.61a6.78 6.78 0 0 0 -.87-.34c-1.66-.41-3.3-.88-5-1.2a146.24 146.24 0 0 0 -25.49-2.28c-10.85-.14-21.68.28-32.39 2.28-1.95.37-3.86.92-5.9 1.41 1.57 4.38 3.05 8.53 4.62 12.92.46-.63.74-1 1-1.4a21.51 21.51 0 0 1 6-5.76c4.27-2.81 9-3.65 14-3.49a21.48 21.48 0 0 1 17.83 9.55 20.07 20.07 0 0 0 5.44 5.35c3.77 2.47 7.95 3.12 12.35 3a1.45 1.45 0 0 0 1.62-1.09c1.33-3.82 2.73-7.61 4.1-11.42.89-2.47 1.77-4.95 2.69-7.53zm-8.78 22.89c-.62 0-1.05 0-1.48 0a34.44 34.44 0 0 1 -3.67-.24 21.34 21.34 0 0 1 -14.68-9.36 18.67 18.67 0 0 0 -7.3-6.35c-4.25-2.1-8.75-2.21-13.29-1.63a17.43 17.43 0 0 0 -10.94 5.88c-1.26 1.4-2.35 3-3.47 4.48a1.2 1.2 0 0 0 0 .9c6.7 21.64 34.12 28.46 50.16 12.48a26.77 26.77 0 0 0 4.67-6.16zm-63.52-21.81-1.33 1.1 1.85 1.28.23-.19zm75 0-.75 2.17.23.2 1.85-1.27z"/><path d="m20.63 45.27c.11-4.72 1.67-8.4 5.42-10.76 4-2.53 8.13-2.17 12.08.25a14.58 14.58 0 0 1 5.7 17.31 11 11 0 0 1 -16.93 4.93 14.4 14.4 0 0 1 -6.27-11.73zm2.91.32a11.45 11.45 0 0 0 4.86 8.9c5 3.67 11.38 1.45 13.08-4.55a11.71 11.71 0 0 0 -4.48-12.41 8.28 8.28 0 0 0 -7.55-1.45c-3.58 1.12-5.93 4.63-5.91 9.51z"/><path d="m26.58 45c.05-.47.06-1 .14-1.43.66-4.22 4.72-6 8.3-3.72a8.71 8.71 0 0 1 3.4 9.71 5 5 0 0 1 -7.54 2.91 8.49 8.49 0 0 1 -4.3-7.47z"/></g></svg>