<svg viewBox="0 0 89.26 80.56" xmlns="http://www.w3.org/2000/svg"><g fill="#fdfeff"><path d="m0 63.54c1.21-3.47 3.68-4.98 7.29-4.57 2.14.24 3.43-.49 4.75-2.32 16.4-22.76 49.93-22.35 65.76.77.82 1.2 1.65 1.76 3.06 1.55.43-.06.88.02 1.32-.02 3.55-.3 5.92 1.23 7.08 4.6v9.46c-1.28 3.42-3.8 4.71-7.37 4.55-3.27-.15-6.55 0-9.82-.04-2.26-.02-3.22-.98-3.24-3.23-.03-4.03-.03-8.06 0-12.09.02-2.27.96-3.2 3.21-3.23 1.58-.02 3.17 0 5.28 0l-4.68-5.83c-4.82 4.87-9.46 9.55-14.17 14.31.42.57 1.07 1.22 1.43 1.99.7 1.5 1.81 1.84 3.34 1.71 1.47-.13 2.96-.03 4.44-.03.03.67.09 1.05.06 1.42-.43 4.76 1.85 6.36 6.1 6.11 2.8-.16 5.62-.03 8.41-.03l.2 1.96h-75.64l.27-1.96c3.34 0 6.61.03 9.87 0 2.95-.04 4.54-1.66 4.58-4.57.01-.92 0-1.85 0-2.94 2.01 0 3.83.05 5.63-.03.53-.03 1.2-.32 1.54-.72.81-.94 1.46-2.02 1.93-2.7-4.74-4.78-9.41-9.48-14.21-14.31l-4.41 5.61c2.14 0 3.69-.02 5.24 0 2.23.03 3.17.97 3.19 3.24.02 3.96.02 7.93 0 11.89-.01 2.47-.93 3.39-3.44 3.42-3.21.03-6.42-.11-9.63.04-3.56.16-6.08-1.13-7.38-4.53v-9.46zm18.04-11.64c4.72 4.77 9.36 9.46 14 14.15 8.41-6.41 16.83-6.36 25.14-.03 4.71-4.71 9.38-9.38 14.05-14.04-14.07-13.89-37.96-14.75-53.19-.08zm3.47 27.07h46.28l-2.02-6.43c-.93 0-2.13-.09-3.31.02-1.6.15-2.53-.36-3.44-1.83-5.76-9.25-18.51-10.72-26.28-3.14-1.75 1.71-7.4 4.75-9.28 5.1l-1.95 6.27zm48.88-7.11c-.04.53-.09.84-.09 1.15-.07 2.93 0 3 2.84 3 3.4 0 6.8.03 10.2 0 2.64-.03 4.37-1.71 4.45-4.36.06-2.14.04-4.28.01-6.42-.04-3.23-1.66-4.83-4.93-4.86-3.21-.03-6.43 0-9.64 0-3.02 0-3.25.29-2.71 3.67 2.71 0 5.47-.04 8.22.03.51.01 1 .47 1.5.71l-.23.68h-9.59v4.92c2.84 0 5.54-.04 8.24.03.47.01.94.47 1.41.72-.47.25-.93.7-1.41.71-2.7.07-5.4.03-8.29.03zm-51.6-8.01c.42-2.92.19-3.46-1.66-3.48-3.78-.05-7.56-.07-11.34.01-2.57.06-4.22 1.76-4.3 4.32-.07 2.33-.07 4.66 0 6.99.08 2.62 1.83 4.28 4.5 4.31 3.65.03 7.31-.03 10.96.03 1.43.02 2.15-.45 2.04-1.95-.05-.67 0-1.35 0-2.22-2.18 0-4.19.15-6.17-.05-1.2-.12-2.73.96-3.62-.75 1.17-.23 2.34-.61 3.52-.67 2.05-.11 4.11-.03 6.16-.03v-4.94h-9.73c.07-.53.09-1.1.15-1.1 3.12-.18 6.24-.31 9.49-.46z"/><path d="m46.9 0c3.85.88 7.43 2.25 10.32 5.09 6.11 5.99 7.36 15.06 3.02 22.35-4.32 7.26-12.97 10.55-21.1 8.04-7.95-2.46-13.25-10.3-12.66-18.72.56-8 6.76-14.93 14.64-16.41.42-.08.82-.24 1.24-.36h4.54zm-2.27 33.6c8.56 0 15.47-6.86 15.49-15.39s-6.85-15.46-15.39-15.51c-8.6-.05-15.6 6.91-15.58 15.5.02 8.54 6.92 15.4 15.48 15.4z"/><path d="m6.16 57.63c0-2.98-.05-5.99.05-8.98.01-.48.55-1.14 1.01-1.36 1.7-.8 3.41-.71 4.99.38 1.9 1.31 1.99 2.46.54 4.2-1.28 1.54-2.56 3.1-3.63 4.79-.75 1.19-1.59 1.41-2.96.98zm6.62-8.21c-1.52-.47-2.67-.93-3.87-1.12-.37-.06-1.22.61-1.24.98-.12 2.09-.06 4.19-.06 6.71z"/><path d="m83.11 57.64c-1.54.54-2.32.02-3.09-1.17-1.15-1.78-2.5-3.46-3.93-5.03-.86-.95-.83-1.65-.17-2.61 1.33-1.93 4.15-2.68 6.19-1.52.43.24.95.79.96 1.21.08 3.06.04 6.12.04 9.11zm-1.45-1.63c0-2.32-.1-4.14.03-5.95.1-1.51-.68-2.02-1.88-1.78-1.05.22-2.02.85-3.15 1.36 1.77 2.25 3.23 4.11 5 6.36z"/><path d="m32.25 22.93h24.98l-2.56 2.32c-6.84 6.18-16.61 5.17-22.41-2.32z"/></g></svg>