<svg viewBox="0 0 76.01 109.06" xmlns="http://www.w3.org/2000/svg"><g fill="#f7f8f9"><path d="m15.5 12.1.56-5.1c4.77-.55 9.39 0 14.1-.36 1.44-4 4-6.77 8.48-6.6 4 .15 6.5 2.51 7.81 6.65l14 .15c.19 1.1.37 1.81.43 2.52s0 1.5 0 2.69c2.23 0 4.35.23 6.44.05 6.14-.51 8.68 2.2 8.63 8.54-.2 26.72-.08 53.44-.09 80.16 0 6.48-1.78 8.27-8.21 8.27h-59.42a22.18 22.18 0 0 1 -2.58 0 5.91 5.91 0 0 1 -5.65-6.07c0-.86 0-1.72 0-2.58v-79.81c0-.86 0-1.72 0-2.58.21-3.57 2.4-5.77 6-5.91 1.62-.06 3.23 0 4.85 0zm.34 3.74a5.28 5.28 0 0 0 -1-.43q-3.39 0-6.78-.05c-4.37 0-4.71.36-4.72 4.86v80.16 2.26c.14 2 .94 2.89 2.95 3.12a18.94 18.94 0 0 0 2.26 0h58.79 2.27c2-.22 2.85-1.06 3-3.07 0-.64 0-1.29 0-1.93q0-40.24 0-80.48c0-.86 0-1.72-.07-2.58a2.5 2.5 0 0 0 -2-2.26c-1.13-.35-8.08 0-9.78.54v6.52a24.58 24.58 0 0 1 -3 .41q-19.39 0-38.78 0a17.18 17.18 0 0 1 -3.13-.63zm3.37 3.37c3.19.7 36 .61 38.24-.06v-9c-4.74-.57-9.37.38-13.88-.61-.23-1-.37-1.74-.57-2.45a5 5 0 0 0 -4.88-3.91 5.16 5.16 0 0 0 -4.45 4c-.2.8-.41 1.59-.71 2.72h-13.75z"/><path d="m37.22 6.57c2.14-.17 2.9.27 2.84 1.52a1.84 1.84 0 0 1 -1.86 1.81c-1.1-.13-1.33-.83-.98-3.33z"/><rect height="3.48" rx="1.74" width="35.99" x="31.86" y="43.37"/><rect height="3.48" rx="1.74" width="35.99" x="31.86" y="50.58"/><rect height="3.48" rx="1.74" width="35.99" x="31.86" y="73.8"/><rect height="3.48" rx="1.74" width="35.99" x="31.86" y="80.76"/><path d="m28.45 57.92h-19.45v-19.2h19.45zm-16.87-2.58h14.28v-14h-14.28z"/><path d="m17.38 52.3a1.32 1.32 0 0 1 -.92-.38l-2.81-2.81a1.29 1.29 0 0 1 1.83-1.83l1.88 1.88 4.46-4.67a1.29 1.29 0 1 1 1.87 1.79l-5.38 5.62a1.28 1.28 0 0 1 -.92.4z"/><path d="m28.45 87.86h-19.45v-19.21h19.45zm-16.87-2.59h14.28v-14h-14.28z"/></g></svg>