<svg viewBox="0 0 106.23 63.37" xmlns="http://www.w3.org/2000/svg"><g fill="#fdfeff"><path d="m3.18 33.86h2.4a2.8 2.8 0 0 1 2.86 2.9c.06 2 0 4.1 0 6.15a3 3 0 0 1 -3.13 3.29c-.67 0-1.35 0-2.22 0v2c0 2.11.51 2.6 2.6 2.6 2.29 0 4.59-.05 6.88 0 .84 0 1.16-.28 1.38-1.1a11.07 11.07 0 0 1 21.51 0c.22.78.5 1.11 1.37 1.11h33.1c.33 0 .67 0 1.08-.08a11 11 0 0 1 5.61-8 10.83 10.83 0 0 1 15.64 6.49 1.78 1.78 0 0 0 2.18 1.6c2.19-.11 4.4 0 6.59 0 1.75 0 2.06-.33 2.08-2.06 0-.77 0-1.54 0-2.24-.21-.12-.29-.2-.37-.21-4-.23-4.41-.7-4.41-4.64 0-1.23 0-2.45 0-3.67 0-2.15 1-3.1 3.14-3.16h1.53c0-.65.08-1.17.08-1.69q0-8.87 0-17.74a11.86 11.86 0 0 0 -12.08-12.31c-6.64 0-13.29 0-19.93 0-.48 0-1.08.15-1.43-.08-.56-.34-1.29-.93-1.31-1.44s.8-1 1.27-1.46c.07-.08.28 0 .42 0 7.52 0 15-.2 22.55.15a14.5 14.5 0 0 1 13.66 14.56c.09 11.43 0 22.87 0 34.3a4.47 4.47 0 0 1 -4.81 4.74c-2.87 0-5.74 0-8.69 0a11.08 11.08 0 0 1 -4.85 7.6 10.83 10.83 0 0 1 -6.67 1.8c-5-.27-8.89-3.79-10.17-9.31h-35.23c-2 6.25-5.52 9.31-10.85 9.46s-8.96-2.83-11.4-9.59h-7.86c-3.76.01-5.7-1.89-5.7-5.65q0-20.53 0-41.06c0-4.6 2.46-7.05 7.05-7.06q11.06-.06 22.12-.06c.48 0 1.08-.13 1.43.1.53.35 1.25 1 1.23 1.46s-.76 1.13-1.32 1.44c-.36.22-1 .07-1.44.07h-21.97c-2.89 0-4 1.09-4 4q0 12.69 0 25.37c-.01.4.04.83.08 1.42zm21.49 26.49a8.08 8.08 0 0 0 0-16.15 8.19 8.19 0 0 0 -8 7.71 8 8 0 0 0 8 8.44zm65-8a7.84 7.84 0 1 0 -15.68 0 7.84 7.84 0 1 0 15.68 0zm-84.34-9.35v-6h-2.09v6zm97.67 0v-5.21l-1.57.08v5.13z"/><path d="m52.88 28.8h-38.8c-3.43 0-4.3-.87-4.32-4.34 0-4.25 0-8.5 0-12.75 0-2.45 1.14-3.59 3.59-3.59h69.71 5.27c4.7 0 7.69 2.77 7.88 7.42.13 3.27.07 6.55 0 9.82-.06 2.38-1.23 3.42-3.8 3.43-9.22 0-18.45 0-27.67 0h-11.86zm-40-17.58v14.44h14.48v-14.44zm80.19 14.44c0-3.79.09-7.44 0-11.08a3.47 3.47 0 0 0 -3.28-3.24c-3.53-.19-7.07-.06-10.67-.06v14.38zm-49.56-14.52c-4.18 0-8.22 0-12.25 0-.27 0-.76.76-.77 1.18-.06 3.31 0 6.63 0 9.94v3.32h13zm16.16 0c-4.15 0-8.19 0-12.22 0-.29 0-.79.75-.8 1.15-.07 3 0 6 0 9.07v4.23h13.02zm3.18 14.46h12.89v-14.38h-12.89z"/><path d="m42.62.08h2.93s1.62.6 1.4 1.48a2.2 2.2 0 0 1 -1.45 1.44 35.24 35.24 0 0 1 -6 0 2.23 2.23 0 0 1 -1.4-1.47c-.19-.89.54-1.41 1.45-1.44s2 0 3.07 0z"/><path d="m57.68.06h2.92a1.38 1.38 0 0 1 1.47 1.48 1.36 1.36 0 0 1 -1.45 1.5 54.21 54.21 0 0 1 -6 0 2.2 2.2 0 0 1 -1.43-1.45c-.19-.92.52-1.47 1.42-1.51s2.04-.02 3.07-.02z"/><path d="m24.8 46.67a5.63 5.63 0 0 1 -.12 11.25 5.63 5.63 0 1 1 .12-11.25zm-.07 3.11a2.46 2.46 0 0 0 -2.58 2.4 2.59 2.59 0 0 0 2.51 2.67 2.54 2.54 0 0 0 .07-5.07z"/><path d="m76.37 52.28a5.49 5.49 0 0 1 11-.13 5.49 5.49 0 1 1 -11 .13zm8 0a2.45 2.45 0 0 0 -2.51-2.47 2.55 2.55 0 0 0 -2.48 2.39 2.5 2.5 0 1 0 5 .08z"/></g></svg>