<svg viewBox="0 0 86.09 75.23" xmlns="http://www.w3.org/2000/svg"><path d="m43.14 75.23c-12.53-10.72-25.56-20.14-35.73-32.67-6.02-7.41-8.94-15.82-6.61-25.36 3.74-15.28 21.71-22.11 34.87-13.3a92.17 92.17 0 0 1 7.43 6.1c1.9-1.63 3.74-3.57 5.9-5.18 13.07-9.91 31.74-3.82 36.08 11.88a25.1 25.1 0 0 1 -4 22.16 105 105 0 0 1 -13.39 15c-7.84 7.37-16.19 14.14-24.55 21.37zm.27-6.23c9.37-8.57 18.78-17 27.93-25.62a41.71 41.71 0 0 0 6.4-8.47 21 21 0 0 0 2.87-15.63c-2.83-13.42-18.43-18.74-29.33-10.03-3.06 2.44-5.88 5.2-8.36 7.41-2.32-2.11-5.08-4.91-8.13-7.35-11.01-8.85-26.73-3.46-29.39 10.17-1.49 7.66 1.26 14.38 6.09 20.26 9.09 11.08 20.51 19.6 31.92 29.26z" fill="#f7f8f9"/></svg>